<svg xmlns="http://www.w3.org/2000/svg" viewBox="0 0 500 112.14067"><defs><style>.cls-1{fill:#007caa;}.cls-2{fill:#a0c3da;}</style></defs><g id="Layer_2" data-name="Layer 2"><g id="Design"><path class="cls-1" d="M199.13791,77.11936H165.40436l-6.98247,15.86887h-9.34012l28.74544-63.47764h8.9783l28.83736,63.47764h-9.52248Zm-3.17319-7.25529L182.27114,38.76025,168.57755,69.86407Z"/><path class="cls-1" d="M212.6185,61.24977c0-18.77142,14.32676-32.46428,33.64163-32.46428,9.79385,0,18.31842,3.35483,24.12208,9.8843l-5.89411,5.71247a23.52409,23.52409,0,0,0-17.86469-7.52592c-14.32823,0-24.93762,10.3373-24.93762,24.39343s10.60939,24.39271,24.93762,24.39271a23.60556,23.60556,0,0,0,17.86469-7.61712l5.89411,5.7132c-5.80366,6.52875-14.32823,9.97476-24.21253,9.97476C226.94526,93.71332,212.6185,80.02119,212.6185,61.24977Z"/><path class="cls-1" d="M324.69553,77.11936H290.962L283.9795,92.98823h-9.34011l28.74544-63.47764h8.9783l28.83736,63.47764H331.678Zm-3.17319-7.25529L307.82876,38.76025,294.13517,69.86407Z"/><path class="cls-1" d="M400.66386,29.51059V92.98823h-7.43474l-38.087-47.336v47.336h-9.06876V29.51059h7.43621l38.087,47.336v-47.336Z"/><path class="cls-1" d="M414.34286,29.51059h9.06876V92.98823h-9.06876Z"/><path class="cls-1" d="M432.5329,61.24977c0-18.58978,14.32676-32.46428,33.824-32.46428C485.67178,28.78549,500,42.56881,500,61.24977c0,18.67951-14.32822,32.46355-33.6431,32.46355C446.85966,93.71332,432.5329,79.83882,432.5329,61.24977Zm58.39834,0c0-14.05613-10.51893-24.39343-24.57434-24.39343-14.23777,0-24.75671,10.3373-24.75671,24.39343s10.51894,24.39271,24.75671,24.39271C480.41231,85.64248,490.93124,75.3059,490.93124,61.24977Z"/><polygon class="cls-2" points="69.489 112.141 105.055 82.105 69.542 61.731 34.599 82.02 69.489 112.141"/><polygon class="cls-1" points="34.599 82.02 69.489 112.141 105.055 82.105 34.599 82.02"/><polygon class="cls-2" points="27.088 78.461 66.626 56.496 36.388 29.068 0 41.613 27.088 78.461"/><polygon class="cls-1" points="0 41.613 27.088 78.461 66.626 56.496 0 41.613"/><polygon class="cls-2" points="69.489 50.41 105.055 20.375 69.542 0 34.599 20.29 69.489 50.41"/><polygon class="cls-1" points="34.599 20.29 69.489 50.41 105.055 20.375 34.599 20.29"/><polygon class="cls-2" points="112.163 78.461 72.625 56.496 102.863 29.068 139.251 41.613 112.163 78.461"/><polygon class="cls-1" points="139.251 41.613 112.163 78.461 72.625 56.496 139.251 41.613"/></g></g></svg>