<?xml version="1.0" encoding="UTF-8"?>
<svg width="853px" height="474px" viewBox="0 0 853 474" version="1.1" xmlns="http://www.w3.org/2000/svg" xmlns:xlink="http://www.w3.org/1999/xlink">
    <g id="Page-1" stroke="none" stroke-width="1" fill="none" fill-rule="evenodd">
        <g id="Layer_2" fill-rule="nonzero" fill="#3F51B5">
            <g id="FINAL_LOGO_OL">
                <polygon id="Shape" points="296.277 434.23 233.398 371.616 371.573 233.176 415.853 277.457 443.199 277.457 371.573 205.831 206.052 371.616 268.931 434.23"></polygon>
                <polygon id="Shape" opacity="0.75" points="213.079 453.633 130.677 371.616 371.623 130.74 518.339 277.457 545.684 277.457 371.623 103.396 102.985 371.616 185.289 453.633"></polygon>
                <polygon id="Shape" opacity="0.5" points="128.997 473.035 27.345 371.616 371.616 27.345 621.726 277.457 649.072 277.457 371.616 0 0 371.616 101.972 473.035"></polygon>
                <polygon id="Shape" points="436.91025 414.72757 382.27765 359.92833 382.27765 414.72757 360.72616 414.72757 360.72616 296.94308 382.27765 296.94308 382.27765 349.56989 434.73877 296.94308 460.46705 296.94308 403.49586 353.57958 463.13986 414.72758"></polygon>
                <path d="M521.94643,339.379 C527.514863,344.949333 530.299393,353.525743 530.30002,365.10823 L530.30002,414.72754 L510.41869,414.72754 L510.41869,402.19718 C508.597884,406.4578 505.467205,410.027643 501.48069,412.38898 C497.204501,414.894134 492.318148,416.166292 487.36323,416.06445 C482.213139,416.134144 477.119114,414.989128 472.49423,412.72225 C468.224539,410.659695 464.5887,407.485952 461.96823,403.53405 C459.415721,399.670882 458.077472,395.132347 458.12565,390.50233 C458.12565,384.48827 459.657017,379.754753 462.71975,376.30178 C465.782477,372.850073 470.76681,370.34374 477.67275,368.78278 C484.578083,367.22498 494.101133,366.44545 506.2419,366.44419 L510.4187,366.44419 L510.4187,362.60161 C510.4187,357.03361 509.221237,353.02392 506.82631,350.57254 C504.43013,348.12396 500.448463,346.898803 494.88131,346.89707 C490.253514,346.943048 485.660612,347.703861 481.26518,349.15258 C476.396613,350.715888 471.717575,352.817276 467.31482,355.41778 L461.46693,341.04965 C472.051236,334.762313 484.07769,331.309809 496.3853,331.02543 C507.85542,331.025437 516.375797,333.80996 521.94643,339.379 Z M505.15615,395.43062 C508.66451,391.700387 510.41869,386.883157 510.41869,380.97893 L510.41869,377.4706 L507.41169,377.4706 C501.602817,377.366219 495.794369,377.701395 490.03606,378.47326 C485.91402,379.1417 482.962377,380.311153 481.18113,381.98162 C479.348458,383.775425 478.374945,386.270247 478.50832,388.83123 C478.403837,392.149758 479.744869,395.350257 482.18379,397.60308 C484.734152,399.925093 488.093312,401.154525 491.54004,401.02741 C496.672763,401.208711 501.634635,399.169185 505.15615,395.43065 L505.15615,395.43062 Z" id="Shape"></path>
                <path d="M562.911,296.8028 L562.911,317.3521 L542.027,317.3521 L542.027,296.8028 L562.911,296.8028 Z M542.027,333.03028 L562.911,333.03028 L562.911,414.72757 L542.027,414.72757 L542.027,333.03028 Z" id="Shape"></path>
                <polygon id="Shape" points="575.35639 296.94308 596.24039 296.94308 596.24039 414.72757 575.35639 414.72757"></polygon>
                <path d="M624.27516,410.885 C618.034989,407.48876 612.946225,402.312902 609.65636,396.016 C606.20276,389.55726 604.476273,382.0389 604.4769,373.46092 C604.4769,364.886393 606.203387,357.396197 609.65636,350.99033 C612.966727,344.729497 618.052357,339.585733 624.27516,336.20442 C638.107744,329.299113 654.382036,329.299113 668.21462,336.20442 C674.42433,339.575052 679.485621,344.723794 682.74939,350.99033 C686.146343,357.396203 687.845133,364.8864 687.84576,373.46092 C687.84576,382.039213 686.14697,389.557573 682.74939,396.016 C679.506164,402.318467 674.441737,407.499351 668.21462,410.885 C654.382187,417.790947 638.107593,417.790947 624.27516,410.885 L624.27516,410.885 Z M661.61521,393.17515 C665.178317,388.721717 666.960503,382.15031 666.96177,373.46093 C666.96177,364.886403 665.179583,358.342847 661.61521,353.83026 C658.04925,349.319713 652.92581,347.06436 646.24489,347.0642 C639.56239,347.0642 634.410943,349.319553 630.79055,353.83026 C627.169837,358.341273 625.359953,364.88483 625.3609,373.46093 C625.3609,382.148743 627.143087,388.72015 630.70746,393.17515 C634.27058,397.63141 639.39402,399.859223 646.07778,399.85859 C652.87074,399.858583 658.049883,397.630767 661.61521,393.17514 L661.61521,393.17515 Z" id="Shape"></path>
                <path d="M765.4989,339.379 C770.286547,344.949333 772.681157,353.358633 772.68273,364.6069 L772.68273,414.72754 L751.79873,414.72754 L751.79873,365.77576 C751.79873,359.42748 750.601583,354.805213 748.20729,351.90896 C745.81111,349.014293 742.051927,347.566323 736.92974,347.56505 C730.91568,347.56505 726.098453,349.458643 722.47806,353.24583 C718.857347,357.03365 717.047463,362.101543 717.04841,368.44951 L717.04841,414.72757 L696.16441,414.72757 L696.16441,333.03028 L716.54707,333.03028 L716.54707,345.22646 C719.234667,340.751592 723.109022,337.108438 727.74059,334.70091 C732.650983,332.196311 738.100727,330.934289 743.61223,331.02544 C753.412243,331.02544 760.7078,333.80996 765.4989,339.379 Z" id="Shape"></path>
                <path d="M844.28688,339.379 C849.85532,344.949333 852.639853,353.525743 852.64048,365.10823 L852.64048,414.72754 L832.75914,414.72754 L832.75914,402.19718 C830.938334,406.4578 827.807655,410.027643 823.82114,412.38898 C819.544951,414.894134 814.658598,416.166292 809.70368,416.06445 C804.553589,416.134144 799.459564,414.989128 794.83468,412.72225 C790.564989,410.659695 786.92915,407.485952 784.30868,403.53405 C781.756175,399.67088 780.417926,395.132346 780.4661,390.50233 C780.4661,384.48827 781.997467,379.754753 785.0602,376.30178 C788.122933,372.850073 793.107267,370.34374 800.0132,368.78278 C806.918533,367.22498 816.441583,366.44545 828.58235,366.44419 L832.75915,366.44419 L832.75915,362.60161 C832.75915,357.03361 831.56169,353.02392 829.16677,350.57254 C826.770583,348.12396 822.788917,346.898803 817.22177,346.89707 C812.593971,346.943048 808.001066,347.703861 803.60563,349.15258 C798.737066,350.715886 794.058031,352.817274 789.65528,355.41778 L783.80738,341.04965 C794.391686,334.762313 806.41814,331.309809 818.72575,331.02543 C830.195863,331.025437 838.71624,333.80996 844.28688,339.379 Z M827.4966,395.43065 C831.00496,391.700417 832.75914,386.883187 832.75914,380.97896 L832.75914,377.4706 L829.75214,377.4706 C823.943267,377.366219 818.134819,377.701395 812.37651,378.47326 C808.25447,379.1417 805.302827,380.311153 803.52158,381.98162 C801.688908,383.775425 800.715395,386.270247 800.84877,388.83123 C800.744287,392.149758 802.085319,395.350257 804.52424,397.60308 C807.074607,399.925091 810.43377,401.154522 813.8805,401.02741 C819.013219,401.208709 823.975088,399.169183 827.4966,395.43065 L827.4966,395.43065 Z" id="Shape"></path>
            </g>
        </g>
    </g>
</svg>