<svg xmlns="http://www.w3.org/2000/svg" viewBox="0 0 121.4918 60.9572"><defs><style>.cls-1{fill:#f5cf00;}.cls-2{fill:#e6000c;}</style></defs><g id="Layer_2" data-name="Layer 2"><g id="Layer_1-2" data-name="Layer 1"><path d="M44.6753,2.8442a2.4151,2.4151,0,0,1-.1054.75,1.7674,1.7674,0,0,1-.293.5508,1.49,1.49,0,0,1-.4258.375,2.1331,2.1331,0,0,1-.5078.2148v.0234a1.7565,1.7565,0,0,1,.6016.2266,1.9116,1.9116,0,0,1,.4883.4141,2.01,2.01,0,0,1,.332.59,2.0935,2.0935,0,0,1,.125.7461,2.3467,2.3467,0,0,1-.1641.8906,1.8562,1.8562,0,0,1-.52.7031,2.5447,2.5447,0,0,1-.8867.4649,4.3778,4.3778,0,0,1-1.2734.1679h-1.68V.7465h1.5859A4.583,4.583,0,0,1,43.1949.895a2.3844,2.3844,0,0,1,.8515.4258,1.538,1.538,0,0,1,.48.66,2.41,2.41,0,0,1,.1485.8633m-1.0469.0352a1.215,1.215,0,0,0-.4024-.9414,1.8571,1.8571,0,0,0-1.2734-.3672h-.5508v2.832h.5391a1.7645,1.7645,0,0,0,1.2578-.4063,1.4482,1.4482,0,0,0,.43-1.1172m.1562,3.7812A1.3385,1.3385,0,0,0,43.3511,5.61,1.817,1.817,0,0,0,42.105,5.223h-.7031V8.1019h.6445a1.9846,1.9846,0,0,0,1.3282-.3633,1.3648,1.3648,0,0,0,.41-1.0781m6.3789,2.3008h-.8828V8.3168h-.0234a1.1468,1.1468,0,0,1-.1524.207,1.7112,1.7112,0,0,1-.3047.2617,2.36,2.36,0,0,1-.4453.2227,1.74,1.74,0,0,1-.5859.0937,1.9757,1.9757,0,0,1-.6836-.1132,1.1989,1.1989,0,0,1-.5156-.3633,1.6359,1.6359,0,0,1-.3282-.6485,3.5412,3.5412,0,0,1-.1132-.98v-3.75h.9648v3.68a1.7006,1.7006,0,0,0,.23,1.0156.8479.8479,0,0,0,.7187.3047,1.1542,1.1542,0,0,0,.7031-.211,2.3742,2.3742,0,0,0,.4532-.41V3.2465h.9648m4.59,5.7148v-3.68a1.723,1.723,0,0,0-.2422-1.043.8835.8835,0,0,0-.7422-.3125,1.1515,1.1515,0,0,0-.7148.2148,2.5237,2.5237,0,0,0-.4531.4141V8.9612H51.64V3.2464h.8789v.6445h.0235a1.1462,1.1462,0,0,1,.1562-.2109,1.5232,1.5232,0,0,1,.3086-.2618A2.19,2.19,0,0,1,53.4565,3.2a1.7773,1.7773,0,0,1,.5977-.0938,1.91,1.91,0,0,1,.6875.1133,1.26,1.26,0,0,1,.5273.3594,1.8133,1.8133,0,0,1,.3321.6484,3.54,3.54,0,0,1,.1171.9844v3.75m1.18-2.7734a3.9972,3.9972,0,0,1,.2265-1.4531,2.6324,2.6324,0,0,1,.582-.9414,2.0144,2.0144,0,0,1,.8086-.5039,2.8222,2.8222,0,0,1,.9063-.1484,2.4507,2.4507,0,0,1,.4766.039,1.8876,1.8876,0,0,1,.332.1016V.5472l.9648-.1094V8.9612H60.312V8.3518h-.0234a1.3282,1.3282,0,0,1-.3906.4453,1.4956,1.4956,0,0,1-.418.2149,1.7519,1.7519,0,0,1-.582.09,1.9124,1.9124,0,0,1-.77-.16,1.6444,1.6444,0,0,1-.6367-.5117,2.6827,2.6827,0,0,1-.4336-.9062,4.885,4.885,0,0,1-.16-1.3359M59.16,8.2464a1.1776,1.1776,0,0,0,.4023-.0625,1.08,1.08,0,0,0,.3086-.1485,1.2111,1.2111,0,0,0,.2226-.1836,1.1283,1.1283,0,0,0,.1368-.1679v-3.52a1.2268,1.2268,0,0,0-.3047-.1446,1.3536,1.3536,0,0,0-.4336-.0585,1.66,1.66,0,0,0-.625.1132,1.1745,1.1745,0,0,0-.5039.375,1.8483,1.8483,0,0,0-.34.68,3.634,3.634,0,0,0-.125,1.0195A4.1793,4.1793,0,0,0,58,7.1448a1.8409,1.8409,0,0,0,.2773.6406,1.0671,1.0671,0,0,0,.4063.3516,1.0535,1.0535,0,0,0,.4766.1094m7.1758-3.07c0,.2461-.0081.457-.0234.6367q-.0293.2637-.0469.4687h-2.918A2.5516,2.5516,0,0,0,63.7808,7.77a1.3542,1.3542,0,0,0,1.1133.4766,1.4945,1.4945,0,0,0,.4531-.0625,1.8308,1.8308,0,0,0,.3515-.1406,1.9753,1.9753,0,0,0,.25-.168c.0664-.0547.1172-.0977.1485-.1289l.3554.6758c-.0391.0429-.0977.0976-.18.1758a1.5108,1.5108,0,0,1-.32.2226,2.0806,2.0806,0,0,1-.5.1992,2.6518,2.6518,0,0,1-.7031.0821,2.4885,2.4885,0,0,1-.9687-.18,1.83,1.83,0,0,1-.7383-.5547,2.6661,2.6661,0,0,1-.4688-.9492,4.9747,4.9747,0,0,1-.1679-1.3867,4.3843,4.3843,0,0,1,.1758-1.3164,2.5968,2.5968,0,0,1,.4687-.91,1.86,1.86,0,0,1,.6914-.5273,2.0381,2.0381,0,0,1,.8438-.1719,1.6409,1.6409,0,0,1,1.2852.5156,2.2683,2.2683,0,0,1,.4648,1.5547M64.5269,3.8909a.9666.9666,0,0,0-.8242.4258,2.3668,2.3668,0,0,0-.3555,1.2383h2.082a1.2163,1.2163,0,0,0,.02-.1719c.004-.0742.004-.1562.004-.2422a1.5453,1.5453,0,0,0-.2383-.9258.79.79,0,0,0-.6875-.3242m5.5547.5117a2.017,2.017,0,0,0-.3437-.2929,1.0628,1.0628,0,0,0-.6563-.1836.8634.8634,0,0,0-.582.1758.5635.5635,0,0,0-.2031.43.7677.7677,0,0,0,.1875.5312,2.6485,2.6485,0,0,0,.5625.4453l.3593.2149a3.5429,3.5429,0,0,1,.9141.7421,1.5519,1.5519,0,0,1,.3359,1.0312,1.5473,1.5473,0,0,1-.4726,1.1406,1.8422,1.8422,0,0,1-1.3516.4649,2.3687,2.3687,0,0,1-.6055-.07,2.9033,2.9033,0,0,1-.457-.168,1.4372,1.4372,0,0,1-.3281-.207,2.2393,2.2393,0,0,1-.2149-.211l.4649-.7617c.0469.0508.1054.1055.1718.168a1.6156,1.6156,0,0,0,.2461.1836,1.2713,1.2713,0,0,0,.32.1484,1.2145,1.2145,0,0,0,.4141.0625A1.0037,1.0037,0,0,0,69.5,8.0549a.5838.5838,0,0,0,.2265-.4648,1.0536,1.0536,0,0,0-.0547-.3516.8054.8054,0,0,0-.16-.2656,1.2592,1.2592,0,0,0-.2617-.2266c-.1016-.07-.2227-.1523-.3555-.2383l-.3594-.2265a3.4081,3.4081,0,0,1-.8359-.7266,1.5122,1.5122,0,0,1-.3047-.9765,1.4007,1.4007,0,0,1,.125-.59,1.3427,1.3427,0,0,1,.3516-.4609,1.605,1.605,0,0,1,.5273-.3086,1.784,1.784,0,0,1,.6484-.1133,2.19,2.19,0,0,1,.57.0625,1.9451,1.9451,0,0,1,.4141.168,2.0033,2.0033,0,0,1,.2852.2031c.0742.0664.1367.125.1836.1719m4.2852,5.25v-3.68A1.9342,1.9342,0,0,0,74.5817,4.27a.7235.7235,0,0,0-.6563-.3086,1.411,1.411,0,0,0-.4219.0586,1.424,1.424,0,0,0-.5781.3437c-.07.0743-.1289.1368-.1758.1914V8.9611h-.9648V3.2463h.8789v.6446h.0273a1.6515,1.6515,0,0,1,.1758-.2344,1.814,1.814,0,0,1,.2968-.2617,1.7363,1.7363,0,0,1,.418-.2071,1.64,1.64,0,0,1,.5352-.082,1.4335,1.4335,0,0,1,1.3789.7578,1.81,1.81,0,0,1,.2265-.2539,1.8783,1.8783,0,0,1,.336-.25,1.92,1.92,0,0,1,.4257-.1836,1.8671,1.8671,0,0,1,.5235-.07c1.16,0,1.7383.6719,1.7383,2.0234v3.832h-.9649v-3.68a1.6091,1.6091,0,0,0-.25-1.0117.8836.8836,0,0,0-.7383-.3086,1.121,1.121,0,0,0-.6718.1953,2.8077,2.8077,0,0,0-.4219.375,2.7948,2.7948,0,0,1,.0352.2813c.008.0976.0117.2031.0117.3164v3.832m5.4023,0h-.9609V3.2463h.9609Zm-.4766-7.0938a.61.61,0,0,1-.4726-.1914.689.689,0,0,1-.18-.5.6794.6794,0,0,1,.18-.4883.6745.6745,0,0,1,.9414,0,.6938.6938,0,0,1,.1758.4883.7036.7036,0,0,1-.1758.5.6128.6128,0,0,1-.4688.1914m5.07,7.0938v-3.68A1.7232,1.7232,0,0,0,85.5,4.2384a.8917.8917,0,0,0-.7461-.3125,1.14,1.14,0,0,0-.7109.2148,2.5308,2.5308,0,0,0-.4531.4141V8.961h-.9649V3.2462h.8829v.6445h.0234a1.2847,1.2847,0,0,1,.1523-.2109,1.6692,1.6692,0,0,1,.3125-.2617,2.1825,2.1825,0,0,1,.4492-.2188,1.7773,1.7773,0,0,1,.5977-.0937,1.91,1.91,0,0,1,.6875.1132,1.2257,1.2257,0,0,1,.5234.3594,1.8154,1.8154,0,0,1,.3359.6485,3.5381,3.5381,0,0,1,.1172.9843v3.75m2.4062,0h-.9648V3.2462h.9648Zm-.4765-7.0938a.6126.6126,0,0,1-.4766-.1914.6889.6889,0,0,1-.18-.5.6792.6792,0,0,1,.18-.4882.6742.6742,0,0,1,.9414,0,.6936.6936,0,0,1,.1758.4882.7035.7035,0,0,1-.1758.5.61.61,0,0,1-.4648.1914M93.05,4.4024a2.0808,2.0808,0,0,0-.3477-.2929,1.0506,1.0506,0,0,0-.6523-.1836.8568.8568,0,0,0-.5821.1758.5509.5509,0,0,0-.2031.43.784.784,0,0,0,.1836.5312,2.7948,2.7948,0,0,0,.5664.4453l.3555.2149a3.5005,3.5005,0,0,1,.9179.7421,1.55,1.55,0,0,1,.3321,1.0312,1.5439,1.5439,0,0,1-.4688,1.1406A1.8546,1.8546,0,0,1,91.8,9.1016a2.3264,2.3264,0,0,1-.6055-.07,3.1185,3.1185,0,0,1-.4609-.168,1.4955,1.4955,0,0,1-.3242-.207,1.86,1.86,0,0,1-.2149-.211l.4649-.7617c.0469.0508.1055.1055.1719.168a1.5662,1.5662,0,0,0,.2422.1836,1.3364,1.3364,0,0,0,.32.1484,1.2374,1.2374,0,0,0,.4179.0625.9921.9921,0,0,0,.6524-.1914.5839.5839,0,0,0,.2266-.4648,1.061,1.061,0,0,0-.0508-.3516.804.804,0,0,0-.16-.2656,1.3976,1.3976,0,0,0-.2656-.2266c-.1016-.07-.2188-.1523-.3555-.2383l-.3555-.2265a3.4347,3.4347,0,0,1-.84-.7266,1.5122,1.5122,0,0,1-.3047-.9765,1.4007,1.4007,0,0,1,.125-.59,1.4468,1.4468,0,0,1,.3516-.4609,1.665,1.665,0,0,1,.5312-.3086,1.7846,1.7846,0,0,1,.6485-.1133,2.2116,2.2116,0,0,1,.57.0625,1.8275,1.8275,0,0,1,.41.168,1.6337,1.6337,0,0,1,.2852.2031c.0781.0664.1367.125.1836.1719m3.7266.32h-1.25V7.1954a1.518,1.518,0,0,0,.1562.8281.59.59,0,0,0,.5235.2227.9525.9525,0,0,0,.3672-.0625,1.2725,1.2725,0,0,0,.2265-.1055l.1289.7734A1.4327,1.4327,0,0,1,97.062,9a1.5458,1.5458,0,0,1-.6094.1015,1.41,1.41,0,0,1-1.1055-.41,2.0184,2.0184,0,0,1-.3711-1.3633V4.0313h-.6875V3.3907l.6875-.1446.1094-1.5938h.8554V3.2461h1.3711m4.5547,1.93c0,.2461-.008.4571-.0234.6368q-.0234.2636-.0468.4687h-2.918A2.58,2.58,0,0,0,99.3159,7.77a1.3517,1.3517,0,0,0,1.1093.4766,1.48,1.48,0,0,0,.4532-.0625,1.6464,1.6464,0,0,0,.3515-.1407,1.5359,1.5359,0,0,0,.25-.1679c.0664-.0547.1172-.0977.1485-.1289l.3593.6757c-.0391.043-.1015.0977-.18.1758a1.6164,1.6164,0,0,1-.32.2227,2.1485,2.1485,0,0,1-.5.1992,2.6732,2.6732,0,0,1-.7031.082,2.4882,2.4882,0,0,1-.9687-.18,1.83,1.83,0,0,1-.7383-.5547,2.6025,2.6025,0,0,1-.4688-.9492,4.9738,4.9738,0,0,1-.1679-1.3867,4.5247,4.5247,0,0,1,.1718-1.3164,2.7338,2.7338,0,0,1,.4688-.91,1.8608,1.8608,0,0,1,.6914-.5274,2.0379,2.0379,0,0,1,.8437-.1719,1.64,1.64,0,0,1,1.2852.5157,2.2486,2.2486,0,0,1,.4649,1.5547m-1.8086-1.2852a.9646.9646,0,0,0-.82.4258,2.3642,2.3642,0,0,0-.3594,1.2383h2.0859a1.3393,1.3393,0,0,0,.0156-.1719c.004-.0742.008-.1563.008-.2422a1.5731,1.5731,0,0,0-.2383-.9258.8017.8017,0,0,0-.6914-.3242m5.6055.1992a.6546.6546,0,0,0-.1562-.0586,1.1536,1.1536,0,0,0-.32-.0351.9955.9955,0,0,0-.7071.2421,1.41,1.41,0,0,0-.3633.5313V8.961h-.9648V3.2462h.8828V4.02h.0234a2.054,2.054,0,0,1,.1524-.3281,1.2841,1.2841,0,0,1,.2382-.2851,1.1205,1.1205,0,0,1,.34-.1954,1.4114,1.4114,0,0,1,.4687-.07,1.2363,1.2363,0,0,1,.3282.0352c.082.0234.1484.043.1953.0586m1.7969,5.7266h-.961V3.2463h.961Zm-.4727-7.0938a.6126.6126,0,0,1-.4765-.1914.689.689,0,0,1-.18-.5.6794.6794,0,0,1,.18-.4883.6262.6262,0,0,1,.4765-.1914.61.61,0,0,1,.461.1914.6794.6794,0,0,1,.18.4883.689.689,0,0,1-.18.5.5959.5959,0,0,1-.461.1914m5.9492,7.0938h-.8829V8.3166h-.0234a1.147,1.147,0,0,1-.1523.207,1.587,1.587,0,0,1-.3047.2617,2.2551,2.2551,0,0,1-.4453.2227,1.74,1.74,0,0,1-.586.0937,1.99,1.99,0,0,1-.6836-.1133,1.2221,1.2221,0,0,1-.5156-.3632,1.6365,1.6365,0,0,1-.3281-.6485,3.6957,3.6957,0,0,1-.1133-.98v-3.75h.9648v3.68a1.73,1.73,0,0,0,.23,1.0156.8509.8509,0,0,0,.7227.3046,1.1352,1.1352,0,0,0,.6992-.2109,2.2575,2.2575,0,0,0,.4531-.41V3.2462h.9649M117.527,8.961v-3.68a1.8956,1.8956,0,0,0-.2032-1.0117.7163.7163,0,0,0-.6523-.3085,1.378,1.378,0,0,0-.4219.0585,1.4256,1.4256,0,0,0-.5781.3438c-.07.0742-.1328.1367-.18.1914V8.961h-.9609V3.2462h.8789v.6445h.0234a1.7209,1.7209,0,0,1,.18-.2344,1.645,1.645,0,0,1,.7148-.4687,1.6208,1.6208,0,0,1,.5352-.082,1.4373,1.4373,0,0,1,1.3789.7578,1.7984,1.7984,0,0,1,.2265-.2539,1.8406,1.8406,0,0,1,.3321-.25,1.9419,1.9419,0,0,1,.43-.1836,1.8427,1.8427,0,0,1,.5234-.07c1.1562,0,1.7383.6719,1.7383,2.0234V8.961h-.9648v-3.68a1.6089,1.6089,0,0,0-.25-1.0117.8936.8936,0,0,0-.7383-.3086,1.1211,1.1211,0,0,0-.6719.1953,2.626,2.626,0,0,0-.4219.375,2.7927,2.7927,0,0,1,.0352.2812c.008.0977.0117.2032.0117.3165V8.961m-75.922,7.07h-1.168v4.93h-.9609v-4.93H39.75v-.6407l.6914-.1328V14.1172A2.214,2.214,0,0,1,40.57,13.32a1.62,1.62,0,0,1,.3477-.5507,1.2651,1.2651,0,0,1,.4961-.3086,1.9507,1.9507,0,0,1,.6093-.0938,1.4726,1.4726,0,0,1,.5235.0821,1.8821,1.8821,0,0,1,.2851.1328l-.2031.7968a1.0791,1.0791,0,0,0-.2031-.1015.8416.8416,0,0,0-.32-.0547.6519.6519,0,0,0-.5235.2148,1.2862,1.2862,0,0,0-.18.7852v1.0234h1.2891m4.8281,5.7148H46.64v-.6445h-.0234a1.2238,1.2238,0,0,1-.1563.207,1.5559,1.5559,0,0,1-.3008.2617,2.2924,2.2924,0,0,1-.4492.2227,1.7,1.7,0,0,1-.582.0937,1.9733,1.9733,0,0,1-.6836-.1133,1.2341,1.2341,0,0,1-.52-.3632,1.6855,1.6855,0,0,1-.3243-.6485,3.5415,3.5415,0,0,1-.1132-.9805v-3.75h.9609v3.68a1.6972,1.6972,0,0,0,.2344,1.0156.8427.8427,0,0,0,.7187.3047,1.1551,1.1551,0,0,0,.7032-.2109,2.4949,2.4949,0,0,0,.4531-.41V15.246h.9609m-2.3672-1.6406a.5976.5976,0,0,1-.168.4414.551.551,0,0,1-.4023.1641.56.56,0,0,1-.4063-.1641.6111.6111,0,0,1-.164-.4414.5988.5988,0,0,1,.164-.4414.5636.5636,0,0,1,.4063-.1679.5545.5545,0,0,1,.4023.1679.5858.5858,0,0,1,.168.4414m1.832,0a.6108.6108,0,0,1-.1641.4414.5849.5849,0,0,1-.8125,0,.6111.6111,0,0,1-.164-.4414.5988.5988,0,0,1,.164-.4414.5754.5754,0,0,1,.8125,0,.5985.5985,0,0,1,.1641.4414M51.5072,16.09a.6591.6591,0,0,0-.1562-.0586,1.1544,1.1544,0,0,0-.32-.0351.9885.9885,0,0,0-.707.2422,1.4062,1.4062,0,0,0-.3633.5312v4.1914h-.9648V15.2461h.8789V16.02h.0273a2.0547,2.0547,0,0,1,.1524-.3281,1.1852,1.1852,0,0,1,.2383-.2852,1.0738,1.0738,0,0,1,.34-.1953,1.393,1.393,0,0,1,.4688-.07,1.2366,1.2366,0,0,1,.3281.0351c.0859.0235.1484.043.1953.0586m7.5938-.3906a2.4141,2.4141,0,0,1-.1055.75,1.9457,1.9457,0,0,1-.293.5508,1.5051,1.5051,0,0,1-.43.375,2.1059,2.1059,0,0,1-.5039.2148v.0235a1.7545,1.7545,0,0,1,.6015.2265,1.9782,1.9782,0,0,1,.4883.4141,2.0125,2.0125,0,0,1,.332.59,2.1811,2.1811,0,0,1,.125.7461,2.2769,2.2769,0,0,1-.1679.8906,1.8067,1.8067,0,0,1-.5157.7032,2.5428,2.5428,0,0,1-.8867.4648,4.3737,4.3737,0,0,1-1.2734.168H54.91V12.7462h1.582a4.6334,4.6334,0,0,1,1.2461.1484,2.3347,2.3347,0,0,1,.8477.4258,1.5813,1.5813,0,0,1,.4844.66,2.4123,2.4123,0,0,1,.1484.8633m-1.0469.0352a1.2182,1.2182,0,0,0-.4062-.9414,1.844,1.844,0,0,0-1.2734-.3672h-.5469v2.832H56.48a1.7743,1.7743,0,0,0,1.2617-.4063,1.4622,1.4622,0,0,0,.43-1.1172m.1524,3.7812a1.339,1.339,0,0,0-.4336-1.0508,1.8063,1.8063,0,0,0-1.2422-.3867h-.7031v2.8789h.6445a1.9726,1.9726,0,0,0,1.3242-.3633,1.3649,1.3649,0,0,0,.41-1.0781m3.3438,2.3008h-.961V15.2461h.961Zm-.4727-7.0938a.6128.6128,0,0,1-.4766-.1914.689.689,0,0,1-.18-.5.6793.6793,0,0,1,.18-.4883.6264.6264,0,0,1,.4766-.1914.6092.6092,0,0,1,.4609.1914.6794.6794,0,0,1,.18.4883.689.689,0,0,1-.18.5.5956.5956,0,0,1-.4609.1914m2.9023,5.7578a.8758.8758,0,0,0,.1016.5.3935.3935,0,0,0,.3515.1446.8683.8683,0,0,0,.2188-.0235.5275.5275,0,0,0,.1367-.0508l.082.7149a2.38,2.38,0,0,1-.2617.0976,1.7843,1.7843,0,0,1-.5117.0586,1.0755,1.0755,0,0,1-.7852-.2969,1.497,1.497,0,0,1-.2969-1.0586V12.5467l.9649-.1093m1.5,5.75a3.9969,3.9969,0,0,1,.2265-1.4531,2.6294,2.6294,0,0,1,.5821-.9414,2.014,2.014,0,0,1,.8086-.504,2.8071,2.8071,0,0,1,.9062-.1484,2.4,2.4,0,0,1,.4727.0391,1.9392,1.9392,0,0,1,.3359.1015V12.5467l.9649-.1094v8.5234h-.8829v-.6093h-.0234a1.3411,1.3411,0,0,1-.1289.1953,1.2715,1.2715,0,0,1-.2656.25,1.4729,1.4729,0,0,1-.414.2148,1.776,1.776,0,0,1-.586.09,1.9076,1.9076,0,0,1-.7656-.16,1.6453,1.6453,0,0,1-.6367-.5117,2.6121,2.6121,0,0,1-.4336-.9063,4.8847,4.8847,0,0,1-.16-1.3359m2.2617,2.0586a1.1753,1.1753,0,0,0,.4024-.0625,1.0786,1.0786,0,0,0,.3086-.1484,1.2145,1.2145,0,0,0,.2226-.1836,1.1207,1.1207,0,0,0,.1367-.168V16.1639a1.296,1.296,0,0,0-.3046-.1445,1.351,1.351,0,0,0-.4336-.0586,1.66,1.66,0,0,0-.625.1133,1.1724,1.1724,0,0,0-.5039.375,1.8459,1.8459,0,0,0-.34.68,3.4951,3.4951,0,0,0-.125,1.02,3.983,3.983,0,0,0,.1016.9961,1.84,1.84,0,0,0,.2773.6406,1.0676,1.0676,0,0,0,.4063.3515,1.0521,1.0521,0,0,0,.4765.1094m7.5078.7149h-.8828v-.6446H74.46a1.1433,1.1433,0,0,1-.1523.2071,1.587,1.587,0,0,1-.3047.2617,2.1494,2.1494,0,0,1-.4453.2226,1.7327,1.7327,0,0,1-.5821.0938,1.9828,1.9828,0,0,1-.6875-.1133,1.2215,1.2215,0,0,1-.5156-.3633,1.6354,1.6354,0,0,1-.3281-.6484,3.6965,3.6965,0,0,1-.1133-.9805v-3.75h.9648v3.68a1.73,1.73,0,0,0,.23,1.0156.8508.8508,0,0,0,.7226.3047,1.135,1.135,0,0,0,.6992-.2109,2.2615,2.2615,0,0,0,.4532-.41V15.2459h.9648M79.96,20.9607v-3.68a1.72,1.72,0,0,0-.2461-1.043.8837.8837,0,0,0-.7422-.3125,1.1515,1.1515,0,0,0-.7148.2148,2.4931,2.4931,0,0,0-.4492.4141v4.4062h-.9649V15.2458h.8789V15.89h.0234a1.1466,1.1466,0,0,1,.1563-.2109,1.523,1.523,0,0,1,.3086-.2617,2.1245,2.1245,0,0,1,.4531-.2188,1.7381,1.7381,0,0,1,.5938-.0937,1.9444,1.9444,0,0,1,.6914.1133,1.2485,1.2485,0,0,1,.5234.3593,1.8121,1.8121,0,0,1,.332.6485,3.5383,3.5383,0,0,1,.1172.9844v3.75m5.5352-4.9648h-.7148a1.9323,1.9323,0,0,1,.2773,1.0234,2.0986,2.0986,0,0,1-.1523.8164,1.7374,1.7374,0,0,1-.4141.6133,1.8494,1.8494,0,0,1-.6328.3789,2.2122,2.2122,0,0,1-.7774.1328h-.1562a1.1048,1.1048,0,0,1-.1523-.0157,1.3176,1.3176,0,0,0-.3008.1915.4389.4389,0,0,0-.1524.3476.35.35,0,0,0,.1367.2891.6776.6776,0,0,0,.4454.1133h.7265a3.0393,3.0393,0,0,1,.75.0859,1.722,1.722,0,0,1,.6016.2656,1.3365,1.3365,0,0,1,.3984.4727,1.53,1.53,0,0,1,.1406.6875,1.8377,1.8377,0,0,1-.1953.8437,1.9775,1.9775,0,0,1-.5547.6563,2.7288,2.7288,0,0,1-.8671.43,4.0015,4.0015,0,0,1-1.1445.1523,2.1159,2.1159,0,0,1-1.3906-.3984,1.4166,1.4166,0,0,1-.4766-1.1484,1.2472,1.2472,0,0,1,.1133-.5508,1.6693,1.6693,0,0,1,.27-.4063,1.4119,1.4119,0,0,1,.3125-.2734c.1094-.0664.1953-.1211.2578-.16v-.0234a.9319.9319,0,0,1-.3672-.7969.8286.8286,0,0,1,.0859-.3945,1.1851,1.1851,0,0,1,.2032-.2735,1.2358,1.2358,0,0,1,.2265-.1718,1.522,1.522,0,0,1,.1719-.09v-.0234a1.6106,1.6106,0,0,1-.707-.6367,2.0794,2.0794,0,0,1-.27-1.1133,2.1607,2.1607,0,0,1,.1563-.84,1.72,1.72,0,0,1,.4141-.6015,1.7789,1.7789,0,0,1,.6132-.3555,2.3889,2.3889,0,0,1,.7579-.1172,2.0627,2.0627,0,0,1,.7617.1406h1.7383M83.8042,20.781a2.1341,2.1341,0,0,1-.4414-.039,1.787,1.787,0,0,0-.2071.1445,1.0448,1.0448,0,0,0-.1875.2031,1.0686,1.0686,0,0,0-.1875.6524c0,.6133.336.9179,1.0117.9179a2.0134,2.0134,0,0,0,1.2852-.34.9854.9854,0,0,0,.4141-.7773.6491.6491,0,0,0-.2617-.59,1.26,1.26,0,0,0-.6992-.1719m.5468-3.7617a1.1237,1.1237,0,0,0-.2929-.8789.9863.9863,0,0,0-.6836-.2617,1.0427,1.0427,0,0,0-.7149.2617,1.11,1.11,0,0,0-.2969.8789,1.11,1.11,0,0,0,.2969.879,1.0649,1.0649,0,0,0,1.3985,0,1.1234,1.1234,0,0,0,.2929-.879M44.1636,32.96h-.8789v-.6445h-.0234a1.2213,1.2213,0,0,1-.1563.207,1.4767,1.4767,0,0,1-.3047.2618,2.1494,2.1494,0,0,1-.4453.2226,1.7,1.7,0,0,1-.582.0938,1.96,1.96,0,0,1-.6836-.1133,1.2335,1.2335,0,0,1-.52-.3633,1.744,1.744,0,0,1-.3282-.6484,3.6969,3.6969,0,0,1-.1132-.98v-3.75h.9648v3.68a1.6972,1.6972,0,0,0,.2344,1.0156.843.843,0,0,0,.7187.3047,1.1551,1.1551,0,0,0,.7032-.2109,2.2317,2.2317,0,0,0,.4492-.41V27.2455h.9648M48.7574,32.96v-3.68a1.7514,1.7514,0,0,0-.2422-1.043.8917.8917,0,0,0-.7461-.3125,1.1322,1.1322,0,0,0-.7109.2148,2.5274,2.5274,0,0,0-.4531.4141V32.96H45.64V27.2454h.8789V27.89h.0235a1.7141,1.7141,0,0,1,.1562-.2109,1.638,1.638,0,0,1,.3086-.2617,2.2224,2.2224,0,0,1,.4531-.2188,1.7773,1.7773,0,0,1,.5977-.0937,1.9369,1.9369,0,0,1,.6875.1133,1.2246,1.2246,0,0,1,.5234.3593,1.8155,1.8155,0,0,1,.336.6485,3.5381,3.5381,0,0,1,.1172.9843v3.75m1.18-2.7734a4.0888,4.0888,0,0,1,.2226-1.453,2.6917,2.6917,0,0,1,.586-.9415,2.0141,2.0141,0,0,1,.8086-.5039,2.8008,2.8008,0,0,1,.9023-.1484,2.4238,2.4238,0,0,1,.4766.039,1.9385,1.9385,0,0,1,.3359.1016V24.5462l.9609-.1094V32.96H54.316v-.6094h-.0234a1.4182,1.4182,0,0,1-.3945.4454,1.4722,1.4722,0,0,1-.4141.2148,1.776,1.776,0,0,1-.5859.09,1.8955,1.8955,0,0,1-.7657-.16,1.6193,1.6193,0,0,1-.6367-.5117,2.6121,2.6121,0,0,1-.4336-.9063,4.7379,4.7379,0,0,1-.16-1.3359M53.16,32.2454a1.1983,1.1983,0,0,0,.4062-.0625,1.13,1.13,0,0,0,.3086-.1484,1.3209,1.3209,0,0,0,.2188-.1836,1.1842,1.1842,0,0,0,.1406-.168v-3.52a1.261,1.261,0,0,0-.7383-.2031,1.6444,1.6444,0,0,0-.625.1133,1.2073,1.2073,0,0,0-.5078.375,1.9764,1.9764,0,0,0-.34.68,3.6142,3.6142,0,0,0-.125,1.02A4.18,4.18,0,0,0,52,31.1439a1.84,1.84,0,0,0,.2813.6406,1.0625,1.0625,0,0,0,.8789.4609m6.2383.7148V24.7455h4.0312l-.07.8242H60.4332v3.0312h2.6992v.8242H60.4332V32.96m3.7227-2.8594a4.4964,4.4964,0,0,1,.1836-1.3555,2.647,2.647,0,0,1,.5-.9336,1.9525,1.9525,0,0,1,.7265-.5352,2.334,2.334,0,0,1,1.7578,0,1.8371,1.8371,0,0,1,.6993.5352,2.6858,2.6858,0,0,1,.4726.9336,4.7853,4.7853,0,0,1,.1719,1.3555,4.577,4.577,0,0,1-.18,1.3711,2.6119,2.6119,0,0,1-.4922.9336,1.8846,1.8846,0,0,1-.7344.5273,2.3932,2.3932,0,0,1-1.7617,0,1.724,1.724,0,0,1-.6992-.5273,2.7,2.7,0,0,1-.4727-.93,4.8187,4.8187,0,0,1-.1718-1.375m3.5117,0a3.1665,3.1665,0,0,0-.3321-1.66,1.0527,1.0527,0,0,0-.93-.5156,1.0316,1.0316,0,0,0-.9219.5156,3.2106,3.2106,0,0,0-.3281,1.66,3.1119,3.1119,0,0,0,.332,1.6445,1.0636,1.0636,0,0,0,.93.5,1.0421,1.0421,0,0,0,.9219-.5,3.1185,3.1185,0,0,0,.3281-1.6445M72.39,28.0892a.676.676,0,0,0-.1524-.0586,1.2037,1.2037,0,0,0-.3242-.0352.9953.9953,0,0,0-.707.2422,1.4073,1.4073,0,0,0-.3633.5313V32.96h-.9649V27.2455h.8829v.7734h.0234a1.7893,1.7893,0,0,1,.1562-.3281,1.171,1.171,0,0,1,.2344-.2852,1.1219,1.1219,0,0,1,.34-.1953,1.42,1.42,0,0,1,.4727-.07,1.272,1.272,0,0,1,.3281.0352c.082.0234.1445.0429.1953.0586m3.2461,1.168a2.0119,2.0119,0,0,0-.3437-.293,1.0628,1.0628,0,0,0-.6563-.1836.8634.8634,0,0,0-.582.1758.5594.5594,0,0,0-.1992.43.7652.7652,0,0,0,.1836.5312,2.5887,2.5887,0,0,0,.5664.4453l.3554.2149a3.4741,3.4741,0,0,1,.9141.7422,1.6737,1.6737,0,0,1-.1367,2.1718,1.8422,1.8422,0,0,1-1.3516.4648,2.3643,2.3643,0,0,1-.6055-.07,3.0561,3.0561,0,0,1-.457-.168,1.4372,1.4372,0,0,1-.3281-.207,2.2277,2.2277,0,0,1-.2149-.2109l.4649-.7618c.0469.0508.1054.1055.1718.168a1.6156,1.6156,0,0,0,.2461.1836,1.3382,1.3382,0,0,0,.32.1484,1.238,1.238,0,0,0,.418.0625.9921.9921,0,0,0,.6524-.1914.5838.5838,0,0,0,.2265-.4648,1.0541,1.0541,0,0,0-.0547-.3516.8064.8064,0,0,0-.16-.2656,1.2589,1.2589,0,0,0-.2617-.2265c-.1016-.07-.2227-.1524-.3555-.2383l-.3594-.2266a3.4079,3.4079,0,0,1-.8359-.7265,1.5121,1.5121,0,0,1-.3047-.9766,1.4,1.4,0,0,1,.125-.59,1.344,1.344,0,0,1,.3515-.461,1.6475,1.6475,0,0,1,.5274-.3086,1.79,1.79,0,0,1,.6523-.1133,2.2369,2.2369,0,0,1,.57.0625,1.9957,1.9957,0,0,1,.41.168,1.8022,1.8022,0,0,1,.2852.2031c.0742.0664.1367.125.1836.1719m4.4648.6406c-.0273-.0234-.0625-.0586-.1133-.1054a1.5617,1.5617,0,0,0-.1992-.1446,1.5223,1.5223,0,0,0-.2852-.125,1.2552,1.2552,0,0,0-.3789-.0508,1.4961,1.4961,0,0,0-.5781.1133,1.1474,1.1474,0,0,0-.4649.3633,1.8559,1.8559,0,0,0-.3086.6485,3.6231,3.6231,0,0,0-.1133.9687A4.7378,4.7378,0,0,0,78.3,31.0775a1.9914,1.9914,0,0,0,.2774.6836,1.07,1.07,0,0,0,.4375.3711,1.3775,1.3775,0,0,0,.5625.1133,1.2189,1.2189,0,0,0,.6718-.1563,2.133,2.133,0,0,0,.3282-.25l.3945.668a1.8927,1.8927,0,0,1-.1758.1719,1.4836,1.4836,0,0,1-.2891.1953,1.9753,1.9753,0,0,1-.4336.16,2.4259,2.4259,0,0,1-.59.0664,2.5191,2.5191,0,0,1-.8945-.1562,1.72,1.72,0,0,1-.7227-.5117,2.5367,2.5367,0,0,1-.4883-.9258,4.7635,4.7635,0,0,1-.18-1.418,3.9243,3.9243,0,0,1,.2149-1.3906,2.5942,2.5942,0,0,1,.5586-.9219,2.0941,2.0941,0,0,1,.7695-.5117,2.3122,2.3122,0,0,1,.8477-.16,2.4549,2.4549,0,0,1,.5664.0586,1.9226,1.9226,0,0,1,.4179.1485,1.25,1.25,0,0,1,.2852.1914c.0742.0664.1367.125.1836.1719M85.1714,32.96v-3.68a1.7512,1.7512,0,0,0-.2422-1.043.8915.8915,0,0,0-.7461-.3125,1.1515,1.1515,0,0,0-.7148.2148,2.6255,2.6255,0,0,0-.4492.4141V32.96h-.9649V24.5462l.9649-.1094v3.3906h.0234a2.2449,2.2449,0,0,1,.1484-.1875,1.2356,1.2356,0,0,1,.2773-.2383,1.9874,1.9874,0,0,1,.4375-.2109,1.8375,1.8375,0,0,1,.5977-.086,1.5159,1.5159,0,0,1,1.1914.4883,2.39,2.39,0,0,1,.4414,1.6172v3.75m5.4375,0h-.8789v-.6445h-.0273a.9743.9743,0,0,1-.1524.207,1.4757,1.4757,0,0,1-.3046.2617,2.15,2.15,0,0,1-.4454.2227,1.7155,1.7155,0,0,1-.582.0937,1.9575,1.9575,0,0,1-.6836-.1133,1.2341,1.2341,0,0,1-.5195-.3632,1.6883,1.6883,0,0,1-.3281-.6485,3.6957,3.6957,0,0,1-.1133-.98v-3.75h.9648v3.68a1.6974,1.6974,0,0,0,.2344,1.0156.8383.8383,0,0,0,.7188.3046,1.155,1.155,0,0,0,.7031-.2109,2.3371,2.3371,0,0,0,.4492-.41V27.2453h.9648M96.1675,32.96V29.28a1.7206,1.7206,0,0,0-.2461-1.043.8787.8787,0,0,0-.7421-.3125,1.1517,1.1517,0,0,0-.7149.2149,2.6291,2.6291,0,0,0-.4492.414V32.96H93.05V27.2452h.8789V27.89h.0234a1.7132,1.7132,0,0,1,.1562-.211,1.6422,1.6422,0,0,1,.3086-.2617,2.225,2.225,0,0,1,.4531-.2187,1.7539,1.7539,0,0,1,.5938-.0938,1.9466,1.9466,0,0,1,.6914.1133,1.2478,1.2478,0,0,1,.5234.3594,1.7506,1.7506,0,0,1,.332.6484,3.5254,3.5254,0,0,1,.1211.9844v3.75m5.5312-4.9648h-.7109a1.9658,1.9658,0,0,1,.2734,1.0234,2.1721,2.1721,0,0,1-.1484.8164,1.7464,1.7464,0,0,1-.418.6133,1.8669,1.8669,0,0,1-.6289.3789,2.2335,2.2335,0,0,1-.7812.1328h-.1563a1.12,1.12,0,0,1-.1523-.0156,1.2219,1.2219,0,0,0-.2969.1914.43.43,0,0,0-.1562.3476.361.361,0,0,0,.1367.2891.6775.6775,0,0,0,.4453.1133h.7266a3.0393,3.0393,0,0,1,.75.0859,1.7222,1.7222,0,0,1,.6016.2657,1.2607,1.2607,0,0,1,.3984.4726,1.5305,1.5305,0,0,1,.1406.6875,1.79,1.79,0,0,1-.1953.8438,1.9659,1.9659,0,0,1-.5507.6562,2.7524,2.7524,0,0,1-.8711.43,3.9894,3.9894,0,0,1-1.1406.1523,2.1276,2.1276,0,0,1-1.3945-.3984,1.4161,1.4161,0,0,1-.4766-1.1484,1.2478,1.2478,0,0,1,.1133-.5508,1.7913,1.7913,0,0,1,.27-.4062,1.3443,1.3443,0,0,1,.3164-.2735c.1055-.0664.1914-.1211.2539-.16v-.0235a.9319.9319,0,0,1-.3672-.7969.7856.7856,0,0,1,.09-.3945,1.0745,1.0745,0,0,1,.1992-.2734,1.2416,1.2416,0,0,1,.2266-.1719,1.5175,1.5175,0,0,1,.1719-.09v-.0235a1.6306,1.6306,0,0,1-.707-.6367,2.08,2.08,0,0,1-.2657-1.1133,2.1608,2.1608,0,0,1,.1524-.84,1.7286,1.7286,0,0,1,.4179-.6016,1.7465,1.7465,0,0,1,.6133-.3555,2.3644,2.3644,0,0,1,.7539-.1172,2.0609,2.0609,0,0,1,.7618.1407h1.7382m-2.7852,5.5352a2.1274,2.1274,0,0,1-.4414-.0391,1.82,1.82,0,0,0-.207.1445,1.027,1.027,0,0,0-.1836.2032.9675.9675,0,0,0-.1367.2773,1.1137,1.1137,0,0,0-.0547.375c0,.6133.3359.918,1.0117.918a2.0136,2.0136,0,0,0,1.2852-.34.99.99,0,0,0,.418-.7773.6577.6577,0,0,0-.2617-.59,1.2828,1.2828,0,0,0-.7032-.1719m.5469-3.7617a1.1232,1.1232,0,0,0-.293-.8789.9855.9855,0,0,0-.6836-.2617,1.0421,1.0421,0,0,0-.7148.2617,1.4493,1.4493,0,0,0,0,1.7578,1.0648,1.0648,0,0,0,1.3984,0,1.1232,1.1232,0,0,0,.293-.8789"/><path class="cls-1" d="M31.4293,40.9572h1.5v20h-3.5v-20"/><path class="cls-2" d="M31.4293,20.8592h1.5v20.098h-3.5V20.8592"/><path d="M20.32,7.9492A2.8247,2.8247,0,0,0,23.3555,9.543a8.7049,8.7049,0,0,1-1.98-2.2539L19.5078,4.2969a4.4353,4.4353,0,0,0-1.375-2.43,2.4578,2.4578,0,0,0,.5586-.2774c-1.2188,0-2.43-.621-3.0977-.621a.6258.6258,0,0,0-.7031.5937c.0274.375.418.7617,1.1328.7617a4.1328,4.1328,0,0,0,.5977-.0586,2.8233,2.8233,0,0,1,.7031,1.7266c0,1.3086-1.5664,2.332-3.1484,2.332-.09,0-.1758-.0039-.2656-.0117a3.584,3.584,0,0,1-.6172-1.4883c0-1.043.68-1.8945.68-2.9258A1.9439,1.9439,0,0,0,13.5391.6992a1.7444,1.7444,0,0,0,.4531-.5547,1.145,1.145,0,0,1-.4414.0547C12.793.1992,12.1758,0,11.5742,0c-.3438,0-.4375.1094-.4375.2109a.2918.2918,0,0,0,.0156.0938,1.7471,1.7471,0,0,0-.3906-.1133,3.265,3.265,0,0,0-.57-.0508c-.7344,0-.9961.3086-.9961.57a2.22,2.22,0,0,0,.375.9375,2.2777,2.2777,0,0,1,.7852-.2382c.3867,0,.7343.3711.9179.8086a3.5728,3.5728,0,0,1-.5781.0429,4.37,4.37,0,0,1-1.2969-.2578c-.0078,0-.0273.0078-.0273.0235,0,.0976.2031.3632.6015.5078a7.6136,7.6136,0,0,0,1.4414.2929.6234.6234,0,0,1-.2812.32.1882.1882,0,0,1-.0938.0039,6.7219,6.7219,0,0,1-1.3945-.4179c-.0234-.0078-.0351.0039-.0351.0273,0,.2735.7109.8828,1.3477,1.1133A7.1846,7.1846,0,0,0,9.4454,6.3125c-.086.0078-.1719.0117-.2618.0117-1.582,0-3.1484-1.0234-3.1484-2.332a2.823,2.823,0,0,1,.7032-1.7266,4.1316,4.1316,0,0,0,.5976.0586c.7149,0,1.1055-.3867,1.1328-.7617a.6272.6272,0,0,0-.707-.5937c-.6641,0-1.875.621-3.0977.621a2.5,2.5,0,0,0,.5625.2774,4.4365,4.4365,0,0,0-1.375,2.43L1.9805,7.2891A8.5553,8.5553,0,0,1,0,9.543,2.83,2.83,0,0,0,3.0391,7.9492l.957-1.5352A4.3281,4.3281,0,0,0,4.2579,7L2.3517,10.0507a8.7035,8.7035,0,0,1-1.9805,2.25,2.8266,2.8266,0,0,0,3.0352-1.59L5.047,8.082c.125.1328.2539.2617.3906.3828l-2.3164,3.707a8.5644,8.5644,0,0,1-1.98,2.25,2.8213,2.8213,0,0,0,3.0352-1.59L6.4337,9.2187q.2226.1407.457.27l-2.7539,4.41a8.6261,8.6261,0,0,1-1.9805,2.25,2.8268,2.8268,0,0,0,3.0352-1.59l2.84-4.543c.168.0664.3359.125.5117.1835L5.336,15.332a8.7,8.7,0,0,1-1.9805,2.25,2.8266,2.8266,0,0,0,3.0352-1.59L9.8087,10.52c.0352.0078.07.0118.1055.02a2.8087,2.8087,0,0,1,.1562.8476,6.16,6.16,0,0,1-2.48,4.4062,1.0274,1.0274,0,0,0,.375.0547,3.2832,3.2832,0,0,0,.586-.039A13.9847,13.9847,0,0,1,7.2267,17.918a10.1624,10.1624,0,0,0-1.5117-.1407c-.4414,0-.4922.2579-.4922.4883a1.1608,1.1608,0,0,0,.4062.8985c.0821-.2071.2461-.4805,1.0625-.4805.0157,0,.043.0039.0821.0039-.2383.2656-.9844.8711-.9844,1.3555a.8879.8879,0,0,0,.8164.8047.9921.9921,0,0,1-.0234-.27,2.0992,2.0992,0,0,1,.6445-1.1758,1.5639,1.5639,0,0,0-.0039.1953c0,.9336.0859,1.3594.6758,1.3594a.9293.9293,0,0,0,.5586-.2071,1.2558,1.2558,0,0,1-.4024-1.1523v-.4531a2.1678,2.1678,0,0,0-.02-.3906,2.89,2.89,0,0,1,.4609-.0273s.84-.0665,1.043.371c.2266-.2109.5586-.5039.5586-.832,0-.2148-.1015-.457-.5351-.457-.1641,0-.68.1015-1.1094.1015a10.4153,10.4153,0,0,1,1.0781-1.5586,1.2372,1.2372,0,0,0,.4062.6289,4.4278,4.4278,0,0,1,.7891-2.1172,10.595,10.595,0,0,1,.1484,1.8438c0,2.3125-.5547,4.02-1.7344,4.3477a1.01,1.01,0,0,0,.8164.5079c.43,0,.6641-.4883.9063-.9493.125.34.4687,1.1719.8164,1.1719.3437,0,.6914-.832.8164-1.1719.2383.461.4727.9493.9062.9493a1.0158,1.0158,0,0,0,.8165-.5079c-1.18-.3281-1.7383-2.0352-1.7383-4.3477a10.1175,10.1175,0,0,1,.1523-1.8438,4.4558,4.4558,0,0,1,.7852,2.1172,1.247,1.247,0,0,0,.41-.6289A11.0529,11.0529,0,0,1,14.9063,17.91c-.4336,0-.9492-.1015-1.1094-.1015-.4336,0-.5351.2422-.5351.457,0,.3281.332.6211.5585.832.2032-.4375,1.043-.3711,1.043-.3711a2.929,2.929,0,0,1,.461.0274,2.5946,2.5946,0,0,0-.0235.3906c.0039.1836.0039.3164.0039.4531a1.2655,1.2655,0,0,1-.4023,1.1523.929.929,0,0,0,.5586.2071c.59,0,.6758-.4258.6758-1.3594a1.5639,1.5639,0,0,0-.0039-.1953,2.1,2.1,0,0,1,.6445,1.1758,1.0144,1.0144,0,0,1-.0273.27.8884.8884,0,0,0,.82-.8047c0-.4844-.7461-1.09-.9883-1.3555.0391,0,.07-.0039.082-.0039.82,0,.9844.2734,1.0664.4805a1.1605,1.1605,0,0,0,.4063-.8985c0-.23-.0508-.4883-.4922-.4883a10.1624,10.1624,0,0,0-1.5117.1407,14.2885,14.2885,0,0,1-1.3281-2.1094,3.3468,3.3468,0,0,0,.5859.039,1.05,1.05,0,0,0,.3789-.0547,6.1524,6.1524,0,0,1-2.4844-4.4062,2.8149,2.8149,0,0,1,.16-.8476c.0352-.0078.07-.0118.1055-.02l3.418,5.4727A2.8216,2.8216,0,0,0,20,17.582a8.7469,8.7469,0,0,1-1.9766-2.25l-3.207-5.1328c.1718-.0586.3437-.1171.5117-.1836l2.8359,4.543a2.8337,2.8337,0,0,0,3.0391,1.59,8.5535,8.5535,0,0,1-1.98-2.25l-2.7539-4.41c.1523-.086.3086-.1758.457-.27l2.2578,3.6133a2.8212,2.8212,0,0,0,3.0352,1.59,8.5644,8.5644,0,0,1-1.9805-2.25l-2.3164-3.707a5.12,5.12,0,0,0,.3867-.3828l1.6445,2.6289a2.8265,2.8265,0,0,0,3.0352,1.59,8.5519,8.5519,0,0,1-1.98-2.25L19.1016,7a4.8891,4.8891,0,0,0,.2618-.5859M5.0154,4.4374A3.3418,3.3418,0,0,1,6.1365,2.1405c.07.0156.1406.0351.207.0508A2.976,2.976,0,0,0,5.488,4.0429c0,1.668,1.7812,3.1172,3.8008,3.1172a4.1146,4.1146,0,0,0-.02.4453,6.4,6.4,0,0,0,.0351.6914A4.2542,4.2542,0,0,1,5.0153,4.4374m3.09,13.672-.0117.039h.0391a7.5689,7.5689,0,0,0,1.16-.0742,1.9072,1.9072,0,0,1,.27-.0273c.1641,0,.293.0156.293.2187a.8242.8242,0,0,1-.3164.48,1.4269,1.4269,0,0,0-1.043-.2656,5.18,5.18,0,0,0-.6758.0625l-.0234.0039-.0274.0039.0078.0742a3.4046,3.4046,0,0,1,.0391.52v.2032l-.0039.25a1.6238,1.6238,0,0,0,.2656,1.09.5873.5873,0,0,1-.18.0351c-.34,0-.4375-.1484-.4375-1.125,0-.1953-.0117-.375-.0156-.5l-.0117-.18-.043.0313a2.6488,2.6488,0,0,0-1.0469,1.5781.7029.7029,0,0,1-.3164-.4844c0-.2773.418-.6953.9062-1.1836l.3125-.3125-.09-.0234a2.0089,2.0089,0,0,0-.4648-.0782,1.4241,1.4241,0,0,0-1.0977.3321,1.1572,1.1572,0,0,1-.1368-.5118.2808.2808,0,0,1,.0586-.2031.252.252,0,0,1,.1836-.0469h.0156a11.4872,11.4872,0,0,1,1.5977.1524l.0157.0039L7.34,18.16a14.271,14.271,0,0,0,1.4883-2.3984.5908.5908,0,0,1,.25-.0469c.2265,0,.2852.1523.3515.3867a7.8163,7.8163,0,0,0-1.3241,2.0078m6.1758-2.3945a.571.571,0,0,1,.246.0469A13.97,13.97,0,0,0,16.0192,18.16l.0078.0117.02-.0039a11.4246,11.4246,0,0,1,1.5977-.1523h.0117a.2575.2575,0,0,1,.1875.0468.28.28,0,0,1,.0586.2032,1.1115,1.1115,0,0,1-.1406.5117,1.4186,1.4186,0,0,0-1.0977-.3321,1.9722,1.9722,0,0,0-.461.0782l-.0429.0078-.0508.0156.3164.3125c.4844.4883.9062.9063.9062,1.1836a.7026.7026,0,0,1-.3164.4844,2.6555,2.6555,0,0,0-1.0508-1.5781l-.0429-.0313-.0078.18c-.0078.125-.0157.3047-.0157.5,0,.9766-.1015,1.125-.4375,1.125a.5657.5657,0,0,1-.18-.0351,1.646,1.646,0,0,0,.2657-1.09l-.0039-.25-.0039-.2032a3.3277,3.3277,0,0,1,.0429-.52l.0078-.0742-.0508-.0078a5.2467,5.2467,0,0,0-.6757-.0625,1.4274,1.4274,0,0,0-1.043.2656.8234.8234,0,0,1-.3164-.48c0-.2031.125-.2187.2929-.2187a1.907,1.907,0,0,1,.27.0273,7.5162,7.5162,0,0,0,1.16.0743h.039l-.0156-.0391a7.6754,7.6754,0,0,0-1.32-2.0078c.0625-.2344.125-.3867.3515-.3867M11.6325,2.4139a2.156,2.156,0,0,0-.4179-.8281,1.1582,1.1582,0,0,0-.8594-.4532,2.0408,2.0408,0,0,0-.668.1641A1.7653,1.7653,0,0,1,9.4763.7108c0-.1446.2461-.293.7148-.293,1.0312,0,1.6445.4687,1.6445,1.25a1.8542,1.8542,0,0,1-.2031.7461m.4609-1.0156a1.322,1.322,0,0,0-.25-.5938c.0078-.1992.09-.3945.418-.2343-.18.18-.043.496-.043.496s.3594-.164.2852-.4023c.5352.1289.1523.8438-.41.7344m2.0078,6.8984a5.6533,5.6533,0,0,0,.043-.6914c0-.1289,0-.2774-.0156-.4492,1.9922-.0274,3.7422-1.4609,3.7422-3.1133a2.9576,2.9576,0,0,0-.8594-1.8516c.07-.0157.1406-.0352.2109-.0508a3.3416,3.3416,0,0,1,1.1212,2.2969,4.2548,4.2548,0,0,1-4.2422,3.8594"/><path d="M32.9293.9612v20h-3.5v-20"/></g></g></svg>