<svg xmlns="http://www.w3.org/2000/svg" viewBox="0 0 1487.8 649.9924"><defs><style>.cls-1{fill:#fff;}</style></defs><g id="Layer_2" data-name="Layer 2"><g id="Layer_1-2" data-name="Layer 1"><path d="M751.5,204.0924c-17.7,0-29.5-12.6-29.5-29s11.8-28.9,29.5-28.9c17.6,0,29.4,12.6,29.4,28.9C780.9,191.4924,769.1,204.0924,751.5,204.0924Zm0-47c-10.1,0-16,6.8-16,18.1,0,11.4,5.9,18.1,16,18.1,10,0,16-6.7,16-18.1C767.4,163.8924,761.5,157.0924,751.5,157.0924Z"/><path d="M816.3,184.5924v18.9H803.1v-56.7h20c16,0,22.8,8.1,22.8,18.5,0,11.3-7.1,19.2-22.8,19.2l-6.8.1Zm0-10h6.8c6.8,0,9.7-3.4,9.7-9.3,0-5.2-3-8.7-9.7-8.7h-6.8Z"/><path d="M905.4,146.7924v10.1H882.1v13.2h17.8v9.7H882.1v13.5h23.3v10.1H868.9v-56.7l36.5.1Z"/><path d="M943.3,148.7924l26.9,34c-.2-2.2-.3-4.2-.3-6.1v-30h11.6v56.7h-6.8a5.0643,5.0643,0,0,1-4.6-2.2l-26.7-33.8c.2,2,.3,3.9.3,5.6v30.4H932.1v-56.7H939C941.2,146.7924,941.8,147.0924,943.3,148.7924Z"/><path d="M737.2,269.8924h2.1a4.9082,4.9082,0,0,0,4.2-1.8l12.8-18.5c1.4-2,3.1-2.6,5.7-2.6h11.4l-16.8,22.9a10.194,10.194,0,0,1-3.9,3.4,9.0056,9.0056,0,0,1,4.9,4l17.1,26.3H762.9c-3,0-4.1-.9-5.1-2.4l-12.8-19.7c-.9-1.4-2.2-2-4.7-2h-3.2v24.1H723.9v-56.7h13.2v23Z"/><path d="M809,248.8924l26.9,34c-.2-2.2-.3-4.2-.3-6.1v-30h11.6v56.7h-6.8a5.0646,5.0646,0,0,1-4.6-2.2l-26.7-33.8c.2,2,.3,3.9.3,5.6v30.4H797.8v-56.7h6.9C806.9,246.8924,807.5,247.1924,809,248.8924Z"/><path d="M901.8,304.1924c-17.7,0-29.5-12.6-29.5-29s11.8-29,29.5-29c17.6,0,29.4,12.6,29.4,29S919.4,304.1924,901.8,304.1924Zm0-47.1c-10.1,0-16,6.8-16,18.1,0,11.4,5.9,18.1,16,18.1,10,0,16-6.7,16-18.1C917.7,263.9924,911.8,257.0924,901.8,257.0924Z"/><path d="M946.6,246.8924h11c2.3,0,3.9,1.1,4.4,2.8l7.8,29.6a48.94,48.94,0,0,1,1.4,6.5,58.92,58.92,0,0,1,1.8-6.5l9.2-29.6a4.5393,4.5393,0,0,1,4.3-2.8h3.9a4.2861,4.2861,0,0,1,4.4,2.8l9.1,29.6a60.1161,60.1161,0,0,1,1.7,6.2c.4-2.3.9-4.4,1.3-6.2l7.8-29.6a4.3073,4.3073,0,0,1,4.3-2.8h10.4l-17.5,56.7H1000l-10.7-35.1c-.3-1.1-.8-2.4-1.1-3.9-.3,1.4-.8,2.8-1.1,3.9l-10.8,35.1H964.4Z"/><path d="M1066.1,293.0924h21v10.5h-34.2v-56.7h13.2v46.2Z"/><path d="M1151.6,246.8924v10.1h-23.3v13.2h17.8v9.7h-17.8v13.5h23.3v10.1h-36.5v-56.7h36.5Z"/><path d="M1201.2,303.5924h-22v-56.7h22c17.6,0,29.4,12,29.4,28.3C1230.6,291.5924,1218.8,303.5924,1201.2,303.5924Zm0-46.6h-8.8v36.5h8.8c10,0,16-6.9,16-18.2S1211.3,256.9924,1201.2,256.9924Z"/><path d="M1288.5,292.3924v-8.6h-5.6a2.2965,2.2965,0,0,1-2.6-2.3v-7.2h20.2v23.9c-5.8,4.2-12.5,6.1-21.7,6.1-16.6,0-28.9-12.4-28.9-29,0-16.9,11.7-29,30-29,9.5,0,16.5,3.3,21.1,7.6l-3.8,5.8a3.6212,3.6212,0,0,1-3,1.8,4.5771,4.5771,0,0,1-2.4-.8,20.9559,20.9559,0,0,0-12.4-3.5c-9.8,0-16,7.2-16,18.1,0,12,7,18.9,16.5,18.9A24.2721,24.2721,0,0,0,1288.5,292.3924Z"/><path d="M1364.6,246.8924v10.1h-23.3v13.2h17.8v9.7h-17.8v13.5h23.3v10.1h-36.5v-56.7h36.5Z"/><path d="M760.6,346.9924v10.1H737.3v14.4h19.4v10.2H737.3v22.1H724.1v-56.8Z"/><path d="M837.2,375.2924a30.4153,30.4153,0,0,1-2.1,11.4,27.1461,27.1461,0,0,1-6,9.2,28.3507,28.3507,0,0,1-9.3,6.1,30.9044,30.9044,0,0,1-12,2.2,31.7693,31.7693,0,0,1-12.1-2.2,28.3517,28.3517,0,0,1-9.3-6.1,27.1461,27.1461,0,0,1-6-9.2,31.9929,31.9929,0,0,1,0-22.8,27.1461,27.1461,0,0,1,6-9.2,28.35,28.35,0,0,1,9.3-6.1,31.4148,31.4148,0,0,1,12.1-2.2,30.9044,30.9044,0,0,1,12,2.2,28.3494,28.3494,0,0,1,9.3,6.1,27.1461,27.1461,0,0,1,6,9.2A30.4153,30.4153,0,0,1,837.2,375.2924Zm-13.4,0a25.8206,25.8206,0,0,0-1.1-7.6,17.3842,17.3842,0,0,0-3.1-5.7,13.9448,13.9448,0,0,0-5-3.6,17.7753,17.7753,0,0,0-6.7-1.2,18.3074,18.3074,0,0,0-6.8,1.2,12.1536,12.1536,0,0,0-5,3.6,15.7243,15.7243,0,0,0-3.1,5.7,26.8045,26.8045,0,0,0,0,15.2,17.3845,17.3845,0,0,0,3.1,5.7,13.9456,13.9456,0,0,0,5,3.6,17.9408,17.9408,0,0,0,6.8,1.2,17.4148,17.4148,0,0,0,6.7-1.2,12.8431,12.8431,0,0,0,5-3.6,15.7234,15.7234,0,0,0,3.1-5.7A25.33,25.33,0,0,0,823.8,375.2924Z"/><path d="M881,393.2924a11.59,11.59,0,0,0,4.7-.9,8.9685,8.9685,0,0,0,3.5-2.5,10.3466,10.3466,0,0,0,2.2-4,17.8458,17.8458,0,0,0,.8-5.3v-33.6h13.2v33.6a26.8726,26.8726,0,0,1-1.7,9.6,20.99,20.99,0,0,1-4.8,7.5,22.5694,22.5694,0,0,1-7.7,4.9,29.8,29.8,0,0,1-20.4,0,22.5694,22.5694,0,0,1-7.7-4.9,20.99,20.99,0,0,1-4.8-7.5,26.8726,26.8726,0,0,1-1.7-9.6v-33.6h13.2v33.5a16.8793,16.8793,0,0,0,.8,5.3,10.3466,10.3466,0,0,0,2.2,4,9.7646,9.7646,0,0,0,3.5,2.5A9.879,9.879,0,0,0,881,393.2924Z"/><path d="M941.4,347.0924a4.5084,4.5084,0,0,1,1.1.3,2.3613,2.3613,0,0,1,.9.6,12.0363,12.0363,0,0,1,1,1.1l26.9,34c-.1-1.1-.2-2.1-.2-3.2-.1-1-.1-2-.1-2.9v-30h11.6v56.7h-6.8a6.6876,6.6876,0,0,1-2.6-.5,5.21,5.21,0,0,1-2-1.7l-26.7-33.8c.1,1,.1,2,.2,2.9a24.393,24.393,0,0,1,.1,2.7v30.4H933.2v-56.7h6.9A5.7016,5.7016,0,0,1,941.4,347.0924Z"/><path d="M1062.4,375.2924a29.5275,29.5275,0,0,1-2.1,11.3,25.398,25.398,0,0,1-6,9,27.8725,27.8725,0,0,1-9.3,5.9,32.86,32.86,0,0,1-12,2.1h-22v-56.6h22a32.86,32.86,0,0,1,12,2.1,27.8745,27.8745,0,0,1,9.3,5.9,25.398,25.398,0,0,1,6,9A29.8957,29.8957,0,0,1,1062.4,375.2924Zm-13.4,0a25.8206,25.8206,0,0,0-1.1-7.6,15.5676,15.5676,0,0,0-3.1-5.7,12.8441,12.8441,0,0,0-5-3.6,17.7727,17.7727,0,0,0-6.7-1.3h-8.8v36.5h8.8a15.7151,15.7151,0,0,0,6.7-1.3,12.8431,12.8431,0,0,0,5-3.6,15.7238,15.7238,0,0,0,3.1-5.7A26.5113,26.5113,0,0,0,1049,375.2924Z"/><path d="M1136.4,403.6924h-10.2a4.8785,4.8785,0,0,1-2.8-.8,3.7,3.7,0,0,1-1.5-2l-3.3-9.9H1097l-3.3,9.9a5.5437,5.5437,0,0,1-1.5,2,4.4706,4.4706,0,0,1-2.8.9h-10.3l21.9-56.7h13.5Zm-36.4-21.7h15.5l-5.2-15.5c-.3-1-.7-2.1-1.2-3.5a43.8171,43.8171,0,0,1-1.3-4.3c-.4,1.6-.8,3-1.3,4.4-.4,1.3-.9,2.5-1.2,3.5Z"/><path d="M1197.1,346.9924v10.4h-16v46.3h-13.2v-46.3h-16v-10.4Z"/><path d="M1235,403.6924h-13.2v-56.7H1235Z"/><path d="M1318.5,375.2924a30.4153,30.4153,0,0,1-2.1,11.4,27.1461,27.1461,0,0,1-6,9.2,28.3507,28.3507,0,0,1-9.3,6.1,30.9051,30.9051,0,0,1-12,2.2,31.77,31.77,0,0,1-12.1-2.2,28.3517,28.3517,0,0,1-9.3-6.1,27.1461,27.1461,0,0,1-6-9.2,31.9929,31.9929,0,0,1,0-22.8,27.1461,27.1461,0,0,1,6-9.2,28.3483,28.3483,0,0,1,9.3-6.1,31.4153,31.4153,0,0,1,12.1-2.2,30.9051,30.9051,0,0,1,12,2.2,28.3514,28.3514,0,0,1,9.3,6.1,27.1461,27.1461,0,0,1,6,9.2A30.4153,30.4153,0,0,1,1318.5,375.2924Zm-13.4,0a25.8206,25.8206,0,0,0-1.1-7.6,17.3842,17.3842,0,0,0-3.1-5.7,13.9448,13.9448,0,0,0-5-3.6,17.7748,17.7748,0,0,0-6.7-1.2,18.3079,18.3079,0,0,0-6.8,1.2,12.1543,12.1543,0,0,0-5,3.6,15.726,15.726,0,0,0-3.1,5.7,26.8069,26.8069,0,0,0,0,15.2,17.3865,17.3865,0,0,0,3.1,5.7,13.9448,13.9448,0,0,0,5,3.6,17.941,17.941,0,0,0,6.8,1.2,17.4139,17.4139,0,0,0,6.7-1.2,12.8431,12.8431,0,0,0,5-3.6,15.7264,15.7264,0,0,0,3.1-5.7A25.33,25.33,0,0,0,1305.1,375.2924Z"/><path d="M1352.3,347.0924a4.5071,4.5071,0,0,1,1.1.3,2.3606,2.3606,0,0,1,.9.6,12.0217,12.0217,0,0,1,1,1.1l26.9,34c-.1-1.1-.2-2.1-.2-3.2-.1-1-.1-2-.1-2.9v-30h11.6v56.7h-6.8a6.6882,6.6882,0,0,1-2.6-.5,5.2112,5.2112,0,0,1-2-1.7l-26.7-33.8c.1,1,.1,2,.2,2.9a24.3687,24.3687,0,0,1,.1,2.7v30.4h-11.6v-56.7h6.9A5.7016,5.7016,0,0,1,1352.3,347.0924Z"/><path d="M771,475.3924a33.2232,33.2232,0,0,1-2,11.6,23.5079,23.5079,0,0,1-5.7,8.9,26.453,26.453,0,0,1-8.8,5.8,29.68,29.68,0,0,1-11.4,2H721.9v-56.6h21.2a31.7,31.7,0,0,1,11.4,2,25.4782,25.4782,0,0,1,8.8,5.8,27.6615,27.6615,0,0,1,5.7,9A30.1988,30.1988,0,0,1,771,475.3924Zm-7.8,0a29.3286,29.3286,0,0,0-1.4-9.3,20.04,20.04,0,0,0-4-7,16.4579,16.4579,0,0,0-6.3-4.3,21.9159,21.9159,0,0,0-8.3-1.5H729.7v44.2h13.5a22.2847,22.2847,0,0,0,8.3-1.5,16.4579,16.4579,0,0,0,6.3-4.3,19.584,19.584,0,0,0,4-6.9A30.4376,30.4376,0,0,0,763.2,475.3924Z"/><path d="M828.2,447.0924v6.2H801v18.8h22v6H801v19.3h27.2v6.2H793.3v-56.6h34.9Z"/><path d="M880.4,497.5923a16.0774,16.0774,0,0,0,6.3-1.2,14.2686,14.2686,0,0,0,4.7-3.3,12.84,12.84,0,0,0,2.9-5.1,19.2719,19.2719,0,0,0,1-6.5v-34.4h7.6v34.4a24.5268,24.5268,0,0,1-1.6,9.1,20.3432,20.3432,0,0,1-4.5,7.3,21.1874,21.1874,0,0,1-7.1,4.8,23.5138,23.5138,0,0,1-9.4,1.7,25.3875,25.3875,0,0,1-9.4-1.7,21.1878,21.1878,0,0,1-7.1-4.8,22.4636,22.4636,0,0,1-4.5-7.3,26.7407,26.7407,0,0,1-1.6-9.1v-34.4h7.6v34.4a19.2743,19.2743,0,0,0,1,6.5,14.1644,14.1644,0,0,0,2.9,5.1,13.3034,13.3034,0,0,0,4.7,3.3A17.8458,17.8458,0,0,0,880.4,497.5923Z"/><path d="M974.9,447.0924v6.4H956.6v50.2h-7.7v-50.2H930.5v-6.4Z"/><path d="M1033.3,455.8924a2.36,2.36,0,0,1-.8.9,1.6893,1.6893,0,0,1-1,.3,2.6919,2.6919,0,0,1-1.6-.7c-.6-.4-1.3-.9-2.3-1.5a26.3384,26.3384,0,0,0-3.3-1.5,15.3467,15.3467,0,0,0-4.6-.7,12.5148,12.5148,0,0,0-4.5.7,10.587,10.587,0,0,0-3.3,1.9,7.9891,7.9891,0,0,0-2,2.8,9.918,9.918,0,0,0-.7,3.5,6.0533,6.0533,0,0,0,1.2,3.9,11.8254,11.8254,0,0,0,3.1,2.7,24.2484,24.2484,0,0,0,4.3,1.9c1.6.5,3.3,1.1,5,1.7a43.4148,43.4148,0,0,1,5,2,15.6829,15.6829,0,0,1,4.3,2.7,12.7029,12.7029,0,0,1,3.1,4.1,13.2031,13.2031,0,0,1,1.2,5.9,18.1548,18.1548,0,0,1-1.3,7,15.6162,15.6162,0,0,1-3.7,5.7,16.6666,16.6666,0,0,1-6,3.8,22.3578,22.3578,0,0,1-8,1.4,24.7934,24.7934,0,0,1-10-2,22.3211,22.3211,0,0,1-7.7-5.4l2.2-3.6a2.6966,2.6966,0,0,1,.8-.7,1.6891,1.6891,0,0,1,1-.3,3.0011,3.0011,0,0,1,1.9.9c.7.6,1.6,1.2,2.7,2a23.57,23.57,0,0,0,3.9,2,16.6307,16.6307,0,0,0,10.5.1,10.679,10.679,0,0,0,3.6-2.1,9.7883,9.7883,0,0,0,2.3-3.3,11.6234,11.6234,0,0,0,.8-4.2,6.9607,6.9607,0,0,0-1.2-4.2,9.0587,9.0587,0,0,0-3.1-2.7,24.2527,24.2527,0,0,0-4.3-1.9c-1.6-.5-3.3-1-5-1.6a42.9137,42.9137,0,0,1-5-1.9,13.893,13.893,0,0,1-4.3-2.8,12.1077,12.1077,0,0,1-3.1-4.2,15.8282,15.8282,0,0,1,0-12.1,15.3132,15.3132,0,0,1,3.4-5,17.8874,17.8874,0,0,1,5.5-3.5,19.6731,19.6731,0,0,1,7.5-1.3,24.4537,24.4537,0,0,1,8.7,1.5,20.736,20.736,0,0,1,6.8,4.3Z"/><path d="M1107.4,491.9924a1.6056,1.6056,0,0,1,1.1.5l3,3.3a23.8492,23.8492,0,0,1-8.4,6.3,28.8539,28.8539,0,0,1-12,2.3,28.1616,28.1616,0,0,1-11.1-2.1,24.4863,24.4863,0,0,1-8.5-5.9,27.6883,27.6883,0,0,1-5.5-9.1,34.1919,34.1919,0,0,1-1.9-11.7,31.2488,31.2488,0,0,1,2.1-11.7,27.2021,27.2021,0,0,1,5.8-9.2,25.1633,25.1633,0,0,1,9-5.9,30.7235,30.7235,0,0,1,11.6-2.1,27.1,27.1,0,0,1,10.8,1.9,25.3846,25.3846,0,0,1,8,5.3l-2.5,3.5a4.3443,4.3443,0,0,1-.6.7,1.4926,1.4926,0,0,1-1,.3,1.8611,1.8611,0,0,1-1.1-.4,8.5276,8.5276,0,0,0-1.4-.9,10.46,10.46,0,0,0-1.9-1.2c-.7-.4-1.6-.8-2.5-1.2a13.929,13.929,0,0,0-3.4-.9,23.3339,23.3339,0,0,0-12.8,1.2,18.2635,18.2635,0,0,0-6.5,4.4,20.43,20.43,0,0,0-4.2,7,29.89,29.89,0,0,0,0,18.7,20.8843,20.8843,0,0,0,4.1,7,18.0228,18.0228,0,0,0,6.2,4.4,19.9383,19.9383,0,0,0,7.7,1.5,29.9,29.9,0,0,0,4.5-.3,20.0307,20.0307,0,0,0,3.7-.9,19.13,19.13,0,0,0,3.2-1.6,20.0323,20.0323,0,0,0,3-2.3C1106.5,492.1924,1106.9,491.9924,1107.4,491.9924Z"/><path d="M1186.7,503.6924H1179v-25.8h-30.5v25.8h-7.7v-56.6h7.7v25.3H1179v-25.3h7.7Z"/><path d="M1230.5,497.2924H1255v6.4h-32.2v-56.6h7.7Z"/><path d="M1331.4,503.6924h-5.9a3.099,3.099,0,0,1-1.7-.5,3.046,3.046,0,0,1-.9-1.3l-5.3-13.7h-25.4l-5.3,13.7a3.8039,3.8039,0,0,1-.9,1.3,2.3522,2.3522,0,0,1-1.7.6h-5.9l22.6-56.6h7.8Zm-37.1-21h21.1l-8.9-23a47.9519,47.9519,0,0,1-1.7-5.3q-.45,1.65-.9,3c-.3.9-.5,1.7-.8,2.4Z"/><path d="M1365.3,447.2924a4.6974,4.6974,0,0,1,1.1,1l32.8,42.7c-.1-.7-.1-1.3-.2-2v-42h6.7v56.6h-3.9a3.34,3.34,0,0,1-1.5-.3,4.0016,4.0016,0,0,1-1.2-1.1l-32.8-42.6a12.7506,12.7506,0,0,1,.1,1.9v42.1h-6.7v-56.6h4A4.4557,4.4557,0,0,1,1365.3,447.2924Z"/><path d="M1487.8,475.3924a33.2209,33.2209,0,0,1-2,11.6,23.5077,23.5077,0,0,1-5.7,8.9,26.4524,26.4524,0,0,1-8.8,5.8,29.68,29.68,0,0,1-11.4,2h-21.2v-56.6h21.2a31.7,31.7,0,0,1,11.4,2,25.4776,25.4776,0,0,1,8.8,5.8,26.0986,26.0986,0,0,1,5.7,9A30.1988,30.1988,0,0,1,1487.8,475.3924Zm-7.8,0a29.3286,29.3286,0,0,0-1.4-9.3,20.0416,20.0416,0,0,0-4-7,16.4583,16.4583,0,0,0-6.3-4.3,21.9155,21.9155,0,0,0-8.3-1.5h-13.5v44.2H1460a22.2847,22.2847,0,0,0,8.3-1.5,16.459,16.459,0,0,0,6.3-4.3,19.5855,19.5855,0,0,0,4-6.9A30.4407,30.4407,0,0,0,1480,475.3924Z"/><polygon points="457.5 326.392 456.8 310.992 410.1 313.192 455.6 302.692 452.2 287.692 406.6 298.192 449.5 279.792 443.4 265.592 400.6 284.092 439.5 258.292 430.9 245.392 392 271.292 425.7 238.892 415 227.792 381.4 260.192 408.7 222.292 396.2 213.292 368.9 251.092 389 208.992 375.1 202.392 355 244.492 367.3 199.392 352.4 195.392 340.1 240.392 344.2 193.892 328.9 192.592 324.6 240.692 320 192.592 304.7 194.092 309.1 240.592 296.5 195.592 281.6 199.792 294.3 244.792 273.8 202.792 260 209.592 280.5 251.492 252.8 213.892 240.4 222.992 268.1 260.592 234.1 228.492 223.6 239.692 257.5 271.792 218.4 246.292 210 259.192 249.1 284.692 206 266.592 200.1 280.792 243.1 298.892 197.5 288.792 194.2 303.792 239.7 313.892 193.1 312.092 192.5 327.492 239.1 329.292 192.9 335.792 195 351.092 241.3 344.592 196.9 359.192 201.8 373.892 246.1 359.192 205.1 381.492 212.4 395.092 253.5 372.792 217.1 401.992 226.7 413.992 263.1 384.692 232.6 420.092 244.2 430.092 274.8 394.792 251 434.992 264.2 442.892 288 402.692 271.8 446.492 286.2 451.792 302.5 407.992 294.3 453.992 309.5 456.692 317.6 410.692 317.8 457.392 333.2 457.292 333 410.592 341.6 456.592 356.7 453.692 348.2 407.792 364.8 451.492 379.2 445.992 362.6 402.392 386.7 442.392 399.9 434.392 375.8 394.392 406.6 429.492 418.2 419.292 387.3 384.192 423.9 413.192 433.5 401.092 396.9 372.092 438.1 394.092 445.3 380.592 404.2 358.592 448.6 372.792 453.3 358.192 408.8 343.892 455.2 349.992 457.2 334.692 410.9 328.592 457.5 326.392"/><polygon points="538.9 342.092 650 356.992 647.2 377.892 536.1 362.892 538.9 342.092"/><rect x="414.2945" y="69.8202" width="173.9009" height="21.0001" transform="translate(143.0973 440.0813) rotate(-54.2325)"/><rect x="393.5522" y="82.9918" width="83.7975" height="20.9994" transform="translate(163.717 446.3637) rotate(-64.5189)"/><rect x="337.4119" y="49.863" width="119.3953" height="20.9992" transform="translate(234.7709 427.7667) rotate(-74.8047)"/><polygon points="354.2 112.392 333.2 110.392 340.4 26.892 361.3 28.692 354.2 112.392"/><polygon points="294.9 112.392 286.1 18.992 307 16.992 315.8 110.392 294.9 112.392"/><polygon points="257.5 121.192 240.1 59.392 260.4 53.692 277.7 115.592 257.5 121.192"/><rect x="211.7972" y="91.0744" width="20.9996" height="43.0992" transform="translate(-26.8705 108.6631) rotate(-25.9578)"/><polygon points="190.4 157.992 180.4 144.392 197.4 131.992 207.3 145.592 190.4 157.992"/><polygon points="162.8 184.792 112.7 137.292 127.2 121.992 177.3 169.492 162.8 184.792"/><polygon points="140.5 215.992 63.3 165.092 74.8 147.492 152 198.492 140.5 215.992"/><polygon points="124.1 250.792 75.7 230.292 83.9 210.992 132.3 231.392 124.1 250.792"/><polygon points="40.5 302.392 111.9 305.192 111 326.192 39.6 323.392 40.5 302.392"/><rect x="71.1095" y="346.49" width="42.3998" height="20.9999" transform="translate(-48.4504 16.1828) rotate(-7.9437)"/><rect x="98.5104" y="384.7126" width="24.1011" height="21.0009" transform="matrix(0.9498, -0.313, 0.313, 0.9498, -118.1414, 54.4604)"/><rect x="55.2935" y="436.8843" width="87.2011" height="21.0003" transform="translate(-201.5818 101.484) rotate(-28.5153)"/><rect x="74.8067" y="477.5176" width="94.0029" height="21.0006" transform="translate(-278.9455 184.0521) rotate(-38.8057)"/><rect x="109.3076" y="510.2745" width="91.6008" height="21.0002" transform="translate(-340.0905 297.0715) rotate(-49.1035)"/><rect x="184.2244" y="516.2423" width="42.2982" height="20.9991" transform="matrix(0.5092, -0.8606, 0.8606, 0.5092, -352.5399, 435.2655)"/><polygon points="232.1 605.992 212.4 598.692 241 521.492 260.7 528.792 232.1 605.992"/><rect x="243.4794" y="561.929" width="75.6032" height="21.0009" transform="translate(-331.4479 749.5104) rotate(-79.9509)"/><polygon points="336.8 590.992 315.8 591.092 315.6 538.592 336.6 538.492 336.8 590.992"/><polygon points="372.5 636.792 354 536.892 374.6 532.992 393.2 632.892 372.5 636.792"/><rect x="401.7282" y="522.5962" width="21.0009" height="61.4028" transform="translate(-169.6834 182.5564) rotate(-20.8109)"/><polygon points="426.7 513.292 510.2 649.992 528.2 639.092 444.7 502.392 426.7 513.292"/><polygon points="471.1 504.292 459.2 492.592 474.2 477.792 486 489.492 471.1 504.292"/><polygon points="539.7 507.592 486.6 465.592 499.6 449.092 552.8 491.092 539.7 507.592"/><polygon points="563.2 463.292 509.2 434.492 519.1 415.992 573.1 444.692 563.2 463.292"/><polygon points="551.9 408.192 525.9 399.892 532.3 379.892 558.3 388.192 551.9 408.192"/><polygon points="539.6 324.592 538.5 303.592 590.5 301.092 591.5 322.092 539.6 324.592"/><rect x="532.9096" y="258.2123" width="65.7008" height="21.0002" transform="translate(-46.1733 135.1893) rotate(-13.0968)"/><polygon points="526 249.292 517.6 229.992 558.8 212.192 567.1 231.492 526 249.292"/><polygon points="509.3 214.692 497.7 197.192 606.1 124.892 617.8 142.392 509.3 214.692"/><polygon points="486.7 183.592 472.2 168.492 488.5 152.692 503 167.892 486.7 183.592"/><polygon points="0 262.292 114.2 287.892 118.8 267.392 4.7 241.792 0 262.292"/><path class="cls-1" d="M328.2,311.2924a33.4173,33.4173,0,0,0-7.5-11.2,33.9164,33.9164,0,0,0-11.6-7.4,40.5884,40.5884,0,0,0-15.1-2.7H266.4v71H294a40.5884,40.5884,0,0,0,15.1-2.7,32.999,32.999,0,0,0,19.1-18.7,37.016,37.016,0,0,0,2.7-14.2A40.1952,40.1952,0,0,0,328.2,311.2924Zm-15.6,23.7a20.795,20.795,0,0,1-3.9,7.2,15.864,15.864,0,0,1-6.3,4.5,20.6341,20.6341,0,0,1-8.4,1.6H283v-45.7h11a19.9921,19.9921,0,0,1,8.4,1.6,18.1072,18.1072,0,0,1,6.3,4.5,20.795,20.795,0,0,1,3.9,7.2,33.2715,33.2715,0,0,1,0,19.1Z"/><polygon class="cls-1" points="382.8 302.592 382.8 289.992 337 289.992 337 360.992 382.8 360.992 382.8 348.292 353.6 348.292 353.6 331.392 375.9 331.392 375.9 319.192 353.6 319.192 353.6 302.592 382.8 302.592"/></g></g></svg>