<svg xmlns="http://www.w3.org/2000/svg" viewBox="0 0 197.7086 100"><defs><style>.cls-1{fill:#505050;}.cls-2{fill:#00a56e;}</style></defs><g id="Layer_2" data-name="Layer 2"><g id="ART"><path class="cls-1" d="M163.5117,100h6.396V80.182h.0874L182.9182,100H189.75V70.3972h-6.397v19.86h-.0864L170.3,70.3972h-6.7881Zm-28.8653,0H158.23V94.5268H141.4772V87.2719h15.0552V82.2131H141.4772V75.8694h16.404V70.3972H134.6464ZM102.7,100h6.8318V90.4636l3.9156-3.773L122.8033,100h8.5718L118.06,82.0889,130.2,70.3972h-8.5281l-12.14,12.272V70.3972H102.7ZM76.9022,75.8694h4.8735c6.7871,0,8.9628,3.8148,8.9628,9.7848,0,6.5513-3.7856,8.8726-7.7449,8.8726H76.9022ZM70.07,100H83.472C92.9579,100,97.57,93.6146,97.57,85.0322c0-9.8256-6.0486-14.635-14.0983-14.635H70.07Zm-28.8653,0H64.7884V94.5268H48.036V87.2719H63.0911V82.2131H48.036V75.8694H64.44V70.3972H41.2051ZM1.2566,100H7.6527V79.2281H7.74L15.355,100H20.62l7.6149-20.98h.0864V100h6.397V70.3972H25.1009L18.2264,90.7538h-.0873L10.8726,70.3972H1.2566Z"/><path class="cls-2" d="M76.5761,8.7574,74.91,5.9389A12.7743,12.7743,0,0,0,64.0576,0H0A12.7821,12.7821,0,0,1,10.8433,5.9389L33.6948,44.6408a12.88,12.88,0,0,0,21.6958,0Z"/><path class="cls-1" d="M197.7086,50.5766H133.628a12.79,12.79,0,0,1-10.8387-5.9343L99.9379,5.9389A12.7863,12.7863,0,0,0,89.0854,0h64.0622a12.7606,12.7606,0,0,1,10.8479,5.9389l22.8606,38.7034a12.7963,12.7963,0,0,0,10.8525,5.9343"/></g></g></svg>