<svg xmlns="http://www.w3.org/2000/svg" viewBox="0 0 258.3161 456.3"><defs><style>.cls-1{fill:#1d1d1b;}.cls-2{fill:#009ace;}</style></defs><g id="Layer_2" data-name="Layer 2"><g id="Layer_1-2" data-name="Layer 1"><g id="Ebene_2" data-name="Ebene 2"><path class="cls-1" d="M0,352.5H11.7c9.2,0,17,4.6,17,13.7,0,9.7-8.3,14.1-17.6,14.1H6.3v17H.1Zm6.2,22.6,4.9-.1c4.1,0,11.1-1.5,11.1-8.8,0-7-6.8-8.6-10.4-8.6l-5.6-.1Z"/><path class="cls-1" d="M33.4,374.3a70.8722,70.8722,0,0,0-.4-8.1h5.6l.3,8.1h.4c1.1-4,4.5-8.6,9.1-8.6a8.7621,8.7621,0,0,1,4,.9v5.3a9.0238,9.0238,0,0,0-3.5-.8c-5.9,0-9.2,5.8-9.6,12.4v13.8H33.4Z"/><path class="cls-1" d="M69.8,365.3c10.7,0,15.3,9.4,15.3,16.4,0,8.3-5.4,16.6-15.3,16.6s-15.6-7.9-15.6-16.6C54.2,374.5,59,365.3,69.8,365.3Zm-.1,28.6c4.8,0,9.3-3.8,9.3-12.3,0-7.9-4.3-11.9-9.3-11.9-4,0-9.4,2.6-9.4,12C60.3,388.1,63.2,393.9,69.7,393.9Z"/><path class="cls-1" d="M87.8,366.1h5.1l1.1-9.3h4.6v9.3h8.8v4.5H98.6v17.6c0,2.8,1.4,4.5,4.3,4.5a14.7358,14.7358,0,0,0,4.5-.9v4.6a10.3193,10.3193,0,0,1-5.2,1.6c-6,0-9.4-3.6-9.4-9.6V370.8h-5Z"/><path class="cls-1" d="M126.1,365.3c10.7,0,15.3,9.4,15.3,16.4,0,8.3-5.4,16.6-15.3,16.6s-15.6-7.9-15.6-16.6C110.5,374.5,115.4,365.3,126.1,365.3Zm-.1,28.6c4.8,0,9.3-3.8,9.3-12.3,0-7.9-4.3-11.9-9.3-11.9-4,0-9.4,2.6-9.4,12C116.6,388.1,119.5,393.9,126,393.9Z"/><path class="cls-1" d="M144.2,366.1h5.1l1.1-9.3H155v9.3h8.8v4.5H155v17.6c0,2.8,1.4,4.5,4.3,4.5a14.7358,14.7358,0,0,0,4.5-.9v4.6a10.3193,10.3193,0,0,1-5.2,1.6c-6,0-9.4-3.6-9.4-9.6V370.8h-5Z"/><path class="cls-1" d="M182.8,403.5c-1.9,4.8-5,6.3-8.8,6.3a13.5459,13.5459,0,0,1-4.1-.6v-5a13.5028,13.5028,0,0,0,3.4.6,4.0394,4.0394,0,0,0,4.1-2.5c.6-1.3,1.6-4,1.9-5a1.601,1.601,0,0,0-1.8-2.1l-11.2-29h6.5l8.7,24.7h.4l7.6-24.7h6.1C185,397.3,184.2,399.6,182.8,403.5Z"/><path class="cls-1" d="M205.3,409.2h-5.8V370.7c0-1.3-.1-3.4-.1-4.6h5.5c.1,1.2.1,3.5.1,4.7h.4a10.58,10.58,0,0,1,9.2-5.2c8.6,0,13.3,7.6,13.3,16.3,0,9-4.8,16.3-13,16.3a10.8254,10.8254,0,0,1-9.2-5h-.4s.1,2.2.1,4.2Zm7.9-39.1c-4.3,0-7.6,4.5-7.9,7.8v7.5c.1,3.4,3.2,8.3,8.1,8.3,5.7,0,8.3-5.4,8.3-11.8C221.7,374.8,218.9,370.1,213.2,370.1Z"/><path class="cls-1" d="M236.1,382.5c.1,6.5,3.2,11.2,9.1,11.2a7.3514,7.3514,0,0,0,7.4-6h5.7c-.7,5.1-5.3,10.5-13.5,10.5-8.7,0-14.6-6.6-14.6-16.8,0-8.7,5.5-16.1,14.2-16.1,11.4,0,14.6,9.9,13.8,17.2Zm16.4-4.3c.1-3-1.6-8.6-7.9-8.6-4.2,0-7.8,3-8.3,8.7Z"/><path class="cls-1" d="M0,411H25v5.3H6.4v14.8H24v5.2H6.4v19.5H.1Z"/><path class="cls-1" d="M56.5,424.7v25.8a31.5339,31.5339,0,0,0,.4,5.3h-6c-.1-1.3-.1-3.6-.1-5.4h-.4a11.541,11.541,0,0,1-10.1,5.8c-4.2,0-10.6-2.3-10.6-11.7V424.6h6v19.9c0,4.1,1.9,6.9,5.9,6.9,4.2,0,7.9-3.7,8.9-9.1V424.6h6Z"/><path class="cls-1" d="M62.3,430a49.8554,49.8554,0,0,0-.3-5.3h6V430h.4c.8-1.4,4.2-6,10.1-6,3.7,0,10.3,2,10.3,11.5v20.3h-6V435.4c0-4.3-1.9-6.8-5.5-6.8-4.3,0-7.9,4-9.1,9.1v18.1H62.3Z"/><path class="cls-1" d="M114.9,411h5.8v40.2c0,1.3,0,3.4.1,4.6h-5.3c-.1-1.3-.1-3.2-.1-4.6H115a10.612,10.612,0,0,1-9.2,5.1c-8.7,0-13.5-7.6-13.5-16.3,0-9,4.8-16.3,13-16.3a10.8256,10.8256,0,0,1,9.2,5h.4s-.1-2.1-.1-4.2Zm-7.8,40.9c4.3,0,7.6-4.5,7.8-7.7v-7.6c-.1-3.4-3.2-8.3-8.1-8.3-5.7,0-8.3,5.4-8.3,11.8C98.6,447.2,101.4,451.9,107.1,451.9Z"/><path class="cls-2" d="M174.1.1l38.3,4.8,45.3,87L212.4,165s-51.7,13.5-71.5,18.3H95.8V301.1L132.3,314l-.9,12.6-64.9-.9-65.1.9L0,314l36.8-12.9V25.3L0,12.6,1.4,0ZM95.8,158.2l37.7,7.2,58.2-40.6,18-32.9-18-33.1L133.5,20.4l-37.7,5Z"/></g></g></g></svg>