<svg xmlns="http://www.w3.org/2000/svg" viewBox="0 0 653.9932 179.2798"><defs><style>.cls-1{fill:#231f20;}</style></defs><g id="Layer_2" data-name="Layer 2"><g id="Layer_1-2" data-name="Layer 1"><path class="cls-1" d="M0,23.28V4.08H137.041v19.2H79.92V175.44H57.1211V23.28Z"/><path class="cls-1" d="M152.7578,56.04a84.9584,84.9584,0,0,1,15.4805-28.68,75.582,75.582,0,0,1,25.68-19.92Q209.2753.0037,229.6787,0q20.395,0,35.76,7.44a75.652,75.652,0,0,1,25.6806,19.92,85.0748,85.0748,0,0,1,15.4795,28.68,112.7748,112.7748,0,0,1,0,67.44,85.0478,85.0478,0,0,1-15.4795,28.68,74.2939,74.2939,0,0,1-25.6806,19.8q-15.3618,7.3183-35.76,7.32-20.4024,0-35.7607-7.32a74.2264,74.2264,0,0,1-25.68-19.8,84.9314,84.9314,0,0,1-15.4805-28.68,112.7748,112.7748,0,0,1,0-67.44Zm21,59.28A69.4089,69.4089,0,0,0,184.3184,138a53.9621,53.9621,0,0,0,18.48,16.2q11.2779,6.12,26.88,6.12,15.5976,0,26.88-6.12A54.0084,54.0084,0,0,0,275.0391,138a69.5049,69.5049,0,0,0,10.5595-22.68,98.8883,98.8883,0,0,0,0-51.12,69.4975,69.4975,0,0,0-10.5595-22.68,54.01,54.01,0,0,0-18.4805-16.2q-11.2837-6.12-26.88-6.12-15.605,0-26.88,6.12a53.9635,53.9635,0,0,0-18.48,16.2A69.4016,69.4016,0,0,0,173.7578,64.2a98.9167,98.9167,0,0,0,0,51.12Z"/><path class="cls-1" d="M444.3564,28.32q-13.0824-9.1179-31.0791-9.12-15.3632,0-26.2812,5.76a51.8422,51.8422,0,0,0-18,15.48,66.7868,66.7868,0,0,0-10.44,22.2,99.1925,99.1925,0,0,0-3.3593,25.92,110.928,110.928,0,0,0,3.3593,27.72,66.2354,66.2354,0,0,0,10.44,22.8,51.5435,51.5435,0,0,0,18.1211,15.48q11.0361,5.76,26.3994,5.76a50.8356,50.8356,0,0,0,20.04-3.72,45.3332,45.3332,0,0,0,15.12-10.32,47.5055,47.5055,0,0,0,9.96-15.72,65.3657,65.3657,0,0,0,4.32-19.68h22.8q-3.3647,32.4-22.32,50.4-18.9624,18-51.84,18-19.9233,0-34.8-6.84a68.29,68.29,0,0,1-24.7207-18.84,80.8161,80.8161,0,0,1-14.76-28.32,120.7832,120.7832,0,0,1-4.92-35.04,114.2814,114.2814,0,0,1,5.28-35.16A84.6629,84.6629,0,0,1,353.1562,26.4a72.1424,72.1424,0,0,1,25.44-19.32Q393.8355.0034,413.5166,0a88.0919,88.0919,0,0,1,25.44,3.6,68.4165,68.4165,0,0,1,21.3594,10.56,59.3957,59.3957,0,0,1,15.6,17.4,63.8137,63.8137,0,0,1,8.16,24.12H461.2773Q457.4336,37.4437,444.3564,28.32Z"/><path class="cls-1" d="M587.0332,4.08l66.96,171.36H628.7939l-18.7207-51.6H537.5938l-19.2012,51.6H495.1133L561.833,4.08ZM602.874,104.64,574.3125,24.72h-.48l-29.04,79.92Z"/></g></g></svg>